v 0.000000 -1.250000 0.000000
v 0.065263 -1.245722 0.000000
v 0.064705 -1.245722 0.008519
v 0.063039 -1.245722 0.016891
v 0.060295 -1.245722 0.024975
v 0.056519 -1.245722 0.032632
v 0.051777 -1.245722 0.039730
v 0.046148 -1.245722 0.046148
v 0.039730 -1.245722 0.051777
v 0.032632 -1.245722 0.056519
v 0.024975 -1.245722 0.060295
v 0.016891 -1.245722 0.063039
v 0.008519 -1.245722 0.064705
v 0.000000 -1.245722 0.065263
v -0.008519 -1.245722 0.064705
v -0.016891 -1.245722 0.063039
v -0.024975 -1.245722 0.060295
v -0.032632 -1.245722 0.056519
v -0.039730 -1.245722 0.051777
v -0.046148 -1.245722 0.046148
v -0.051777 -1.245722 0.039730
v -0.056519 -1.245722 0.032632
v -0.060295 -1.245722 0.024975
v -0.063039 -1.245722 0.016891
v -0.064705 -1.245722 0.008519
v -0.065263 -1.245722 0.000000
v -0.064705 -1.245722 -0.008519
v -0.063039 -1.245722 -0.016891
v -0.060295 -1.245722 -0.024975
v -0.056519 -1.245722 -0.032632
v -0.051777 -1.245722 -0.039730
v -0.046148 -1.245722 -0.046148
v -0.039730 -1.245722 -0.051777
v -0.032632 -1.245722 -0.056519
v -0.024975 -1.245722 -0.060295
v -0.016891 -1.245722 -0.063039
v -0.008519 -1.245722 -0.064705
v -0.000000 -1.245722 -0.065263
v 0.008519 -1.245722 -0.064705
v 0.016891 -1.245722 -0.063039
v 0.024975 -1.245722 -0.060295
v 0.032632 -1.245722 -0.056519
v 0.039730 -1.245722 -0.051777
v 0.046148 -1.245722 -0.046148
v 0.051777 -1.245722 -0.039730
v 0.056519 -1.245722 -0.032632
v 0.060295 -1.245722 -0.024975
v 0.063039 -1.245722 -0.016891
v 0.064705 -1.245722 -0.008519
v 0.129410 -1.232963 0.000000
v 0.128302 -1.232963 0.016891
v 0.125000 -1.232963 0.033494
v 0.119559 -1.232963 0.049523
v 0.112072 -1.232963 0.064705
v 0.102667 -1.232963 0.078780
v 0.091506 -1.232963 0.091506
v 0.078780 -1.232963 0.102667
v 0.064705 -1.232963 0.112072
v 0.049523 -1.232963 0.119559
v 0.033494 -1.232963 0.125000
v 0.016891 -1.232963 0.128302
v 0.000000 -1.232963 0.129410
v -0.016891 -1.232963 0.128302
v -0.033494 -1.232963 0.125000
v -0.049523 -1.232963 0.119559
v -0.064705 -1.232963 0.112072
v -0.078780 -1.232963 0.102667
v -0.091506 -1.232963 0.091506
v -0.102667 -1.232963 0.078780
v -0.112072 -1.232963 0.064705
v -0.119559 -1.232963 0.049523
v -0.125000 -1.232963 0.033494
v -0.128302 -1.232963 0.016891
v -0.129410 -1.232963 0.000000
v -0.128302 -1.232963 -0.016891
v -0.125000 -1.232963 -0.033494
v -0.119559 -1.232963 -0.049523
v -0.112072 -1.232963 -0.064705
v -0.102667 -1.232963 -0.078780
v -0.091506 -1.232963 -0.091506
v -0.078780 -1.232963 -0.102667
v -0.064705 -1.232963 -0.112072
v -0.049523 -1.232963 -0.119559
v -0.033494 -1.232963 -0.125000
v -0.016891 -1.232963 -0.128302
v -0.000000 -1.232963 -0.129410
v 0.016891 -1.232963 -0.128302
v 0.033494 -1.232963 -0.125000
v 0.049523 -1.232963 -0.119559
v 0.064705 -1.232963 -0.112072
v 0.078780 -1.232963 -0.102667
v 0.091506 -1.232963 -0.091506
v 0.102667 -1.232963 -0.078780
v 0.112072 -1.232963 -0.064705
v 0.119559 -1.232963 -0.049523
v 0.125000 -1.232963 -0.033494
v 0.128302 -1.232963 -0.016891
v 0.191342 -1.211940 0.000000
v 0.189705 -1.211940 0.024975
v 0.184822 -1.211940 0.049523
v 0.176777 -1.211940 0.073223
v 0.165707 -1.211940 0.095671
v 0.151802 -1.211940 0.116481
v 0.135299 -1.211940 0.135299
v 0.116481 -1.211940 0.151802
v 0.095671 -1.211940 0.165707
v 0.073223 -1.211940 0.176777
v 0.049523 -1.211940 0.184822
v 0.024975 -1.211940 0.189705
v 0.000000 -1.211940 0.191342
v -0.024975 -1.211940 0.189705
v -0.049523 -1.211940 0.184822
v -0.073223 -1.211940 0.176777
v -0.095671 -1.211940 0.165707
v -0.116481 -1.211940 0.151802
v -0.135299 -1.211940 0.135299
v -0.151802 -1.211940 0.116481
v -0.165707 -1.211940 0.095671
v -0.176777 -1.211940 0.073223
v -0.184822 -1.211940 0.049523
v -0.189705 -1.211940 0.024975
v -0.191342 -1.211940 0.000000
v -0.189705 -1.211940 -0.024975
v -0.184822 -1.211940 -0.049523
v -0.176777 -1.211940 -0.073223
v -0.165707 -1.211940 -0.095671
v -0.151802 -1.211940 -0.116481
v -0.135299 -1.211940 -0.135299
v -0.116481 -1.211940 -0.151802
v -0.095671 -1.211940 -0.165707
v -0.073223 -1.211940 -0.176777
v -0.049523 -1.211940 -0.184822
v -0.024975 -1.211940 -0.189705
v -0.000000 -1.211940 -0.191342
v 0.024975 -1.211940 -0.189705
v 0.049523 -1.211940 -0.184822
v 0.073223 -1.211940 -0.176777
v 0.095671 -1.211940 -0.165707
v 0.116481 -1.211940 -0.151802
v 0.135299 -1.211940 -0.135299
v 0.151802 -1.211940 -0.116481
v 0.165707 -1.211940 -0.095671
v 0.176777 -1.211940 -0.073223
v 0.184822 -1.211940 -0.049523
v 0.189705 -1.211940 -0.024975
v 0.250000 -1.183013 0.000000
v 0.247861 -1.183013 0.032632
v 0.241481 -1.183013 0.064705
v 0.230970 -1.183013 0.095671
v 0.216506 -1.183013 0.125000
v 0.198338 -1.183013 0.152190
v 0.176777 -1.183013 0.176777
v 0.152190 -1.183013 0.198338
v 0.125000 -1.183013 0.216506
v 0.095671 -1.183013 0.230970
v 0.064705 -1.183013 0.241481
v 0.032632 -1.183013 0.247861
v 0.000000 -1.183013 0.250000
v -0.032632 -1.183013 0.247861
v -0.064705 -1.183013 0.241481
v -0.095671 -1.183013 0.230970
v -0.125000 -1.183013 0.216506
v -0.152190 -1.183013 0.198338
v -0.176777 -1.183013 0.176777
v -0.198338 -1.183013 0.152190
v -0.216506 -1.183013 0.125000
v -0.230970 -1.183013 0.095671
v -0.241481 -1.183013 0.064705
v -0.247861 -1.183013 0.032632
v -0.250000 -1.183013 0.000000
v -0.247861 -1.183013 -0.032632
v -0.241481 -1.183013 -0.064705
v -0.230970 -1.183013 -0.095671
v -0.216506 -1.183013 -0.125000
v -0.198338 -1.183013 -0.152190
v -0.176777 -1.183013 -0.176777
v -0.152190 -1.183013 -0.198338
v -0.125000 -1.183013 -0.216506
v -0.095671 -1.183013 -0.230970
v -0.064705 -1.183013 -0.241481
v -0.032632 -1.183013 -0.247861
v -0.000000 -1.183013 -0.250000
v 0.032632 -1.183013 -0.247861
v 0.064705 -1.183013 -0.241481
v 0.095671 -1.183013 -0.230970
v 0.125000 -1.183013 -0.216506
v 0.152190 -1.183013 -0.198338
v 0.176777 -1.183013 -0.176777
v 0.198338 -1.183013 -0.152190
v 0.216506 -1.183013 -0.125000
v 0.230970 -1.183013 -0.095671
v 0.241481 -1.183013 -0.064705
v 0.247861 -1.183013 -0.032632
v 0.304381 -1.146677 0.000000
v 0.301777 -1.146677 0.039730
v 0.294009 -1.146677 0.078780
v 0.281211 -1.146677 0.116481
v 0.263601 -1.146677 0.152190
v 0.241481 -1.146677 0.185295
v 0.215230 -1.146677 0.215230
v 0.185295 -1.146677 0.241481
v 0.152190 -1.146677 0.263601
v 0.116481 -1.146677 0.281211
v 0.078780 -1.146677 0.294009
v 0.039730 -1.146677 0.301777
v 0.000000 -1.146677 0.304381
v -0.039730 -1.146677 0.301777
v -0.078780 -1.146677 0.294009
v -0.116481 -1.146677 0.281211
v -0.152190 -1.146677 0.263601
v -0.185295 -1.146677 0.241481
v -0.215230 -1.146677 0.215230
v -0.241481 -1.146677 0.185295
v -0.263601 -1.146677 0.152190
v -0.281211 -1.146677 0.116481
v -0.294009 -1.146677 0.078780
v -0.301777 -1.146677 0.039730
v -0.304381 -1.146677 0.000000
v -0.301777 -1.146677 -0.039730
v -0.294009 -1.146677 -0.078780
v -0.281211 -1.146677 -0.116481
v -0.263601 -1.146677 -0.152190
v -0.241481 -1.146677 -0.185295
v -0.215230 -1.146677 -0.215230
v -0.185295 -1.146677 -0.241481
v -0.152190 -1.146677 -0.263601
v -0.116481 -1.146677 -0.281211
v -0.078780 -1.146677 -0.294009
v -0.039730 -1.146677 -0.301777
v -0.000000 -1.146677 -0.304381
v 0.039730 -1.146677 -0.301777
v 0.078780 -1.146677 -0.294009
v 0.116481 -1.146677 -0.281211
v 0.152190 -1.146677 -0.263601
v 0.185295 -1.146677 -0.241481
v 0.215230 -1.146677 -0.215230
v 0.241481 -1.146677 -0.185295
v 0.263601 -1.146677 -0.152190
v 0.281211 -1.146677 -0.116481
v 0.294009 -1.146677 -0.078780
v 0.301777 -1.146677 -0.039730
v 0.353553 -1.103553 0.000000
v 0.350529 -1.103553 0.046148
v 0.341506 -1.103553 0.091506
v 0.326641 -1.103553 0.135299
v 0.306186 -1.103553 0.176777
v 0.280493 -1.103553 0.215230
v 0.250000 -1.103553 0.250000
v 0.215230 -1.103553 0.280493
v 0.176777 -1.103553 0.306186
v 0.135299 -1.103553 0.326641
v 0.091506 -1.103553 0.341506
v 0.046148 -1.103553 0.350529
v 0.000000 -1.103553 0.353553
v -0.046148 -1.103553 0.350529
v -0.091506 -1.103553 0.341506
v -0.135299 -1.103553 0.326641
v -0.176777 -1.103553 0.306186
v -0.215230 -1.103553 0.280493
v -0.250000 -1.103553 0.250000
v -0.280493 -1.103553 0.215230
v -0.306186 -1.103553 0.176777
v -0.326641 -1.103553 0.135299
v -0.341506 -1.103553 0.091506
v -0.350529 -1.103553 0.046148
v -0.353553 -1.103553 0.000000
v -0.350529 -1.103553 -0.046148
v -0.341506 -1.103553 -0.091506
v -0.326641 -1.103553 -0.135299
v -0.306186 -1.103553 -0.176777
v -0.280493 -1.103553 -0.215230
v -0.250000 -1.103553 -0.250000
v -0.215230 -1.103553 -0.280493
v -0.176777 -1.103553 -0.306186
v -0.135299 -1.103553 -0.326641
v -0.091506 -1.103553 -0.341506
v -0.046148 -1.103553 -0.350529
v -0.000000 -1.103553 -0.353553
v 0.046148 -1.103553 -0.350529
v 0.091506 -1.103553 -0.341506
v 0.135299 -1.103553 -0.326641
v 0.176777 -1.103553 -0.306186
v 0.215230 -1.103553 -0.280493
v 0.250000 -1.103553 -0.250000
v 0.280493 -1.103553 -0.215230
v 0.306186 -1.103553 -0.176777
v 0.326641 -1.103553 -0.135299
v 0.341506 -1.103553 -0.091506
v 0.350529 -1.103553 -0.046148
v 0.396677 -1.054381 0.000000
v 0.393283 -1.054381 0.051777
v 0.383160 -1.054381 0.102667
v 0.366481 -1.054381 0.151802
v 0.343532 -1.054381 0.198338
v 0.314705 -1.054381 0.241481
v 0.280493 -1.054381 0.280493
v 0.241481 -1.054381 0.314705
v 0.198338 -1.054381 0.343532
v 0.151802 -1.054381 0.366481
v 0.102667 -1.054381 0.383160
v 0.051777 -1.054381 0.393283
v 0.000000 -1.054381 0.396677
v -0.051777 -1.054381 0.393283
v -0.102667 -1.054381 0.383160
v -0.151802 -1.054381 0.366481
v -0.198338 -1.054381 0.343532
v -0.241481 -1.054381 0.314705
v -0.280493 -1.054381 0.280493
v -0.314705 -1.054381 0.241481
v -0.343532 -1.054381 0.198338
v -0.366481 -1.054381 0.151802
v -0.383160 -1.054381 0.102667
v -0.393283 -1.054381 0.051777
v -0.396677 -1.054381 0.000000
v -0.393283 -1.054381 -0.051777
v -0.383160 -1.054381 -0.102667
v -0.366481 -1.054381 -0.151802
v -0.343532 -1.054381 -0.198338
v -0.314705 -1.054381 -0.241481
v -0.280493 -1.054381 -0.280493
v -0.241481 -1.054381 -0.314705
v -0.198338 -1.054381 -0.343532
v -0.151802 -1.054381 -0.366481
v -0.102667 -1.054381 -0.383160
v -0.051777 -1.054381 -0.393283
v -0.000000 -1.054381 -0.396677
v 0.051777 -1.054381 -0.393283
v 0.102667 -1.054381 -0.383160
v 0.151802 -1.054381 -0.366481
v 0.198338 -1.054381 -0.343532
v 0.241481 -1.054381 -0.314705
v 0.280493 -1.054381 -0.280493
v 0.314705 -1.054381 -0.241481
v 0.343532 -1.054381 -0.198338
v 0.366481 -1.054381 -0.151802
v 0.383160 -1.054381 -0.102667
v 0.393283 -1.054381 -0.051777
v 0.433013 -1.000000 0.000000
v 0.429308 -1.000000 0.056519
v 0.418258 -1.000000 0.112072
v 0.400052 -1.000000 0.165707
v 0.375000 -1.000000 0.216506
v 0.343532 -1.000000 0.263601
v 0.306186 -1.000000 0.306186
v 0.263601 -1.000000 0.343532
v 0.216506 -1.000000 0.375000
v 0.165707 -1.000000 0.400052
v 0.112072 -1.000000 0.418258
v 0.056519 -1.000000 0.429308
v 0.000000 -1.000000 0.433013
v -0.056519 -1.000000 0.429308
v -0.112072 -1.000000 0.418258
v -0.165707 -1.000000 0.400052
v -0.216506 -1.000000 0.375000
v -0.263601 -1.000000 0.343532
v -0.306186 -1.000000 0.306186
v -0.343532 -1.000000 0.263601
v -0.375000 -1.000000 0.216506
v -0.400052 -1.000000 0.165707
v -0.418258 -1.000000 0.112072
v -0.429308 -1.000000 0.056519
v -0.433013 -1.000000 0.000000
v -0.429308 -1.000000 -0.056519
v -0.418258 -1.000000 -0.112072
v -0.400052 -1.000000 -0.165707
v -0.375000 -1.000000 -0.216506
v -0.343532 -1.000000 -0.263601
v -0.306186 -1.000000 -0.306186
v -0.263601 -1.000000 -0.343532
v -0.216506 -1.000000 -0.375000
v -0.165707 -1.000000 -0.400052
v -0.112072 -1.000000 -0.418258
v -0.056519 -1.000000 -0.429308
v -0.000000 -1.000000 -0.433013
v 0.056519 -1.000000 -0.429308
v 0.112072 -1.000000 -0.418258
v 0.165707 -1.000000 -0.400052
v 0.216506 -1.000000 -0.375000
v 0.263601 -1.000000 -0.343532
v 0.306186 -1.000000 -0.306186
v 0.343532 -1.000000 -0.263601
v 0.375000 -1.000000 -0.216506
v 0.400052 -1.000000 -0.165707
v 0.418258 -1.000000 -0.112072
v 0.429308 -1.000000 -0.056519
v 0.461940 -0.941342 0.000000
v 0.457988 -0.941342 0.060295
v 0.446200 -0.941342 0.119559
v 0.426777 -0.941342 0.176777
v 0.400052 -0.941342 0.230970
v 0.366481 -0.941342 0.281211
v 0.326641 -0.941342 0.326641
v 0.281211 -0.941342 0.366481
v 0.230970 -0.941342 0.400052
v 0.176777 -0.941342 0.426777
v 0.119559 -0.941342 0.446200
v 0.060295 -0.941342 0.457988
v 0.000000 -0.941342 0.461940
v -0.060295 -0.941342 0.457988
v -0.119559 -0.941342 0.446200
v -0.176777 -0.941342 0.426777
v -0.230970 -0.941342 0.400052
v -0.281211 -0.941342 0.366481
v -0.326641 -0.941342 0.326641
v -0.366481 -0.941342 0.281211
v -0.400052 -0.941342 0.230970
v -0.426777 -0.941342 0.176777
v -0.446200 -0.941342 0.119559
v -0.457988 -0.941342 0.060295
v -0.461940 -0.941342 0.000000
v -0.457988 -0.941342 -0.060295
v -0.446200 -0.941342 -0.119559
v -0.426777 -0.941342 -0.176777
v -0.400052 -0.941342 -0.230970
v -0.366481 -0.941342 -0.281211
v -0.326641 -0.941342 -0.326641
v -0.281211 -0.941342 -0.366481
v -0.230970 -0.941342 -0.400052
v -0.176777 -0.941342 -0.426777
v -0.119559 -0.941342 -0.446200
v -0.060295 -0.941342 -0.457988
v -0.000000 -0.941342 -0.461940
v 0.060295 -0.941342 -0.457988
v 0.119559 -0.941342 -0.446200
v 0.176777 -0.941342 -0.426777
v 0.230970 -0.941342 -0.400052
v 0.281211 -0.941342 -0.366481
v 0.326641 -0.941342 -0.326641
v 0.366481 -0.941342 -0.281211
v 0.400052 -0.941342 -0.230970
v 0.426777 -0.941342 -0.176777
v 0.446200 -0.941342 -0.119559
v 0.457988 -0.941342 -0.060295
v 0.482963 -0.879410 0.000000
v 0.478831 -0.879410 0.063039
v 0.466506 -0.879410 0.125000
v 0.446200 -0.879410 0.184822
v 0.418258 -0.879410 0.241481
v 0.383160 -0.879410 0.294009
v 0.341506 -0.879410 0.341506
v 0.294009 -0.879410 0.383160
v 0.241481 -0.879410 0.418258
v 0.184822 -0.879410 0.446200
v 0.125000 -0.879410 0.466506
v 0.063039 -0.879410 0.478831
v 0.000000 -0.879410 0.482963
v -0.063039 -0.879410 0.478831
v -0.125000 -0.879410 0.466506
v -0.184822 -0.879410 0.446200
v -0.241481 -0.879410 0.418258
v -0.294009 -0.879410 0.383160
v -0.341506 -0.879410 0.341506
v -0.383160 -0.879410 0.294009
v -0.418258 -0.879410 0.241481
v -0.446200 -0.879410 0.184822
v -0.466506 -0.879410 0.125000
v -0.478831 -0.879410 0.063039
v -0.482963 -0.879410 0.000000
v -0.478831 -0.879410 -0.063039
v -0.466506 -0.879410 -0.125000
v -0.446200 -0.879410 -0.184822
v -0.418258 -0.879410 -0.241481
v -0.383160 -0.879410 -0.294009
v -0.341506 -0.879410 -0.341506
v -0.294009 -0.879410 -0.383160
v -0.241481 -0.879410 -0.418258
v -0.184822 -0.879410 -0.446200
v -0.125000 -0.879410 -0.466506
v -0.063039 -0.879410 -0.478831
v -0.000000 -0.879410 -0.482963
v 0.063039 -0.879410 -0.478831
v 0.125000 -0.879410 -0.466506
v 0.184822 -0.879410 -0.446200
v 0.241481 -0.879410 -0.418258
v 0.294009 -0.879410 -0.383160
v 0.341506 -0.879410 -0.341506
v 0.383160 -0.879410 -0.294009
v 0.418258 -0.879410 -0.241481
v 0.446200 -0.879410 -0.184822
v 0.466506 -0.879410 -0.125000
v 0.478831 -0.879410 -0.063039
v 0.495722 -0.815263 0.000000
v 0.491481 -0.815263 0.064705
v 0.478831 -0.815263 0.128302
v 0.457988 -0.815263 0.189705
v 0.429308 -0.815263 0.247861
v 0.393283 -0.815263 0.301777
v 0.350529 -0.815263 0.350529
v 0.301777 -0.815263 0.393283
v 0.247861 -0.815263 0.429308
v 0.189705 -0.815263 0.457988
v 0.128302 -0.815263 0.478831
v 0.064705 -0.815263 0.491481
v 0.000000 -0.815263 0.495722
v -0.064705 -0.815263 0.491481
v -0.128302 -0.815263 0.478831
v -0.189705 -0.815263 0.457988
v -0.247861 -0.815263 0.429308
v -0.301777 -0.815263 0.393283
v -0.350529 -0.815263 0.350529
v -0.393283 -0.815263 0.301777
v -0.429308 -0.815263 0.247861
v -0.457988 -0.815263 0.189705
v -0.478831 -0.815263 0.128302
v -0.491481 -0.815263 0.064705
v -0.495722 -0.815263 0.000000
v -0.491481 -0.815263 -0.064705
v -0.478831 -0.815263 -0.128302
v -0.457988 -0.815263 -0.189705
v -0.429308 -0.815263 -0.247861
v -0.393283 -0.815263 -0.301777
v -0.350529 -0.815263 -0.350529
v -0.301777 -0.815263 -0.393283
v -0.247861 -0.815263 -0.429308
v -0.189705 -0.815263 -0.457988
v -0.128302 -0.815263 -0.478831
v -0.064705 -0.815263 -0.491481
v -0.000000 -0.815263 -0.495722
v 0.064705 -0.815263 -0.491481
v 0.128302 -0.815263 -0.478831
v 0.189705 -0.815263 -0.457988
v 0.247861 -0.815263 -0.429308
v 0.301777 -0.815263 -0.393283
v 0.350529 -0.815263 -0.350529
v 0.393283 -0.815263 -0.301777
v 0.429308 -0.815263 -0.247861
v 0.457988 -0.815263 -0.189705
v 0.478831 -0.815263 -0.128302
v 0.491481 -0.815263 -0.064705
v 0.500000 -0.535714 0.000000
v 0.495722 -0.535714 0.065263
v 0.482963 -0.535714 0.129410
v 0.461940 -0.535714 0.191342
v 0.433013 -0.535714 0.250000
v 0.396677 -0.535714 0.304381
v 0.353553 -0.535714 0.353553
v 0.304381 -0.535714 0.396677
v 0.250000 -0.535714 0.433013
v 0.191342 -0.535714 0.461940
v 0.129410 -0.535714 0.482963
v 0.065263 -0.535714 0.495722
v 0.000000 -0.535714 0.500000
v -0.065263 -0.535714 0.495722
v -0.129410 -0.535714 0.482963
v -0.191342 -0.535714 0.461940
v -0.250000 -0.535714 0.433013
v -0.304381 -0.535714 0.396677
v -0.353553 -0.535714 0.353553
v -0.396677 -0.535714 0.304381
v -0.433013 -0.535714 0.250000
v -0.461940 -0.535714 0.191342
v -0.482963 -0.535714 0.129410
v -0.495722 -0.535714 0.065263
v -0.500000 -0.535714 0.000000
v -0.495722 -0.535714 -0.065263
v -0.482963 -0.535714 -0.129410
v -0.461940 -0.535714 -0.191342
v -0.433013 -0.535714 -0.250000
v -0.396677 -0.535714 -0.304381
v -0.353553 -0.535714 -0.353553
v -0.304381 -0.535714 -0.396677
v -0.250000 -0.535714 -0.433013
v -0.191342 -0.535714 -0.461940
v -0.129410 -0.535714 -0.482963
v -0.065263 -0.535714 -0.495722
v -0.000000 -0.535714 -0.500000
v 0.065263 -0.535714 -0.495722
v 0.129410 -0.535714 -0.482963
v 0.191342 -0.535714 -0.461940
v 0.250000 -0.535714 -0.433013
v 0.304381 -0.535714 -0.396677
v 0.353553 -0.535714 -0.353553
v 0.396677 -0.535714 -0.304381
v 0.433013 -0.535714 -0.250000
v 0.461940 -0.535714 -0.191342
v 0.482963 -0.535714 -0.129410
v 0.495722 -0.535714 -0.065263
v 0.500000 -0.321429 0.000000
v 0.495722 -0.321429 0.065263
v 0.482963 -0.321429 0.129410
v 0.461940 -0.321429 0.191342
v 0.433013 -0.321429 0.250000
v 0.396677 -0.321429 0.304381
v 0.353553 -0.321429 0.353553
v 0.304381 -0.321429 0.396677
v 0.250000 -0.321429 0.433013
v 0.191342 -0.321429 0.461940
v 0.129410 -0.321429 0.482963
v 0.065263 -0.321429 0.495722
v 0.000000 -0.321429 0.500000
v -0.065263 -0.321429 0.495722
v -0.129410 -0.321429 0.482963
v -0.191342 -0.321429 0.461940
v -0.250000 -0.321429 0.433013
v -0.304381 -0.321429 0.396677
v -0.353553 -0.321429 0.353553
v -0.396677 -0.321429 0.304381
v -0.433013 -0.321429 0.250000
v -0.461940 -0.321429 0.191342
v -0.482963 -0.321429 0.129410
v -0.495722 -0.321429 0.065263
v -0.500000 -0.321429 0.000000
v -0.495722 -0.321429 -0.065263
v -0.482963 -0.321429 -0.129410
v -0.461940 -0.321429 -0.191342
v -0.433013 -0.321429 -0.250000
v -0.396677 -0.321429 -0.304381
v -0.353553 -0.321429 -0.353553
v -0.304381 -0.321429 -0.396677
v -0.250000 -0.321429 -0.433013
v -0.191342 -0.321429 -0.461940
v -0.129410 -0.321429 -0.482963
v -0.065263 -0.321429 -0.495722
v -0.000000 -0.321429 -0.500000
v 0.065263 -0.321429 -0.495722
v 0.129410 -0.321429 -0.482963
v 0.191342 -0.321429 -0.461940
v 0.250000 -0.321429 -0.433013
v 0.304381 -0.321429 -0.396677
v 0.353553 -0.321429 -0.353553
v 0.396677 -0.321429 -0.304381
v 0.433013 -0.321429 -0.250000
v 0.461940 -0.321429 -0.191342
v 0.482963 -0.321429 -0.129410
v 0.495722 -0.321429 -0.065263
v 0.500000 -0.107143 0.000000
v 0.495722 -0.107143 0.065263
v 0.482963 -0.107143 0.129410
v 0.461940 -0.107143 0.191342
v 0.433013 -0.107143 0.250000
v 0.396677 -0.107143 0.304381
v 0.353553 -0.107143 0.353553
v 0.304381 -0.107143 0.396677
v 0.250000 -0.107143 0.433013
v 0.191342 -0.107143 0.461940
v 0.129410 -0.107143 0.482963
v 0.065263 -0.107143 0.495722
v 0.000000 -0.107143 0.500000
v -0.065263 -0.107143 0.495722
v -0.129410 -0.107143 0.482963
v -0.191342 -0.107143 0.461940
v -0.250000 -0.107143 0.433013
v -0.304381 -0.107143 0.396677
v -0.353553 -0.107143 0.353553
v -0.396677 -0.107143 0.304381
v -0.433013 -0.107143 0.250000
v -0.461940 -0.107143 0.191342
v -0.482963 -0.107143 0.129410
v -0.495722 -0.107143 0.065263
v -0.500000 -0.107143 0.000000
v -0.495722 -0.107143 -0.065263
v -0.482963 -0.107143 -0.129410
v -0.461940 -0.107143 -0.191342
v -0.433013 -0.107143 -0.250000
v -0.396677 -0.107143 -0.304381
v -0.353553 -0.107143 -0.353553
v -0.304381 -0.107143 -0.396677
v -0.250000 -0.107143 -0.433013
v -0.191342 -0.107143 -0.461940
v -0.129410 -0.107143 -0.482963
v -0.065263 -0.107143 -0.495722
v -0.000000 -0.107143 -0.500000
v 0.065263 -0.107143 -0.495722
v 0.129410 -0.107143 -0.482963
v 0.191342 -0.107143 -0.461940
v 0.250000 -0.107143 -0.433013
v 0.304381 -0.107143 -0.396677
v 0.353553 -0.107143 -0.353553
v 0.396677 -0.107143 -0.304381
v 0.433013 -0.107143 -0.250000
v 0.461940 -0.107143 -0.191342
v 0.482963 -0.107143 -0.129410
v 0.495722 -0.107143 -0.065263
v 0.500000 0.107143 0.000000
v 0.495722 0.107143 0.065263
v 0.482963 0.107143 0.129410
v 0.461940 0.107143 0.191342
v 0.433013 0.107143 0.250000
v 0.396677 0.107143 0.304381
v 0.353553 0.107143 0.353553
v 0.304381 0.107143 0.396677
v 0.250000 0.107143 0.433013
v 0.191342 0.107143 0.461940
v 0.129410 0.107143 0.482963
v 0.065263 0.107143 0.495722
v 0.000000 0.107143 0.500000
v -0.065263 0.107143 0.495722
v -0.129410 0.107143 0.482963
v -0.191342 0.107143 0.461940
v -0.250000 0.107143 0.433013
v -0.304381 0.107143 0.396677
v -0.353553 0.107143 0.353553
v -0.396677 0.107143 0.304381
v -0.433013 0.107143 0.250000
v -0.461940 0.107143 0.191342
v -0.482963 0.107143 0.129410
v -0.495722 0.107143 0.065263
v -0.500000 0.107143 0.000000
v -0.495722 0.107143 -0.065263
v -0.482963 0.107143 -0.129410
v -0.461940 0.107143 -0.191342
v -0.433013 0.107143 -0.250000
v -0.396677 0.107143 -0.304381
v -0.353553 0.107143 -0.353553
v -0.304381 0.107143 -0.396677
v -0.250000 0.107143 -0.433013
v -0.191342 0.107143 -0.461940
v -0.129410 0.107143 -0.482963
v -0.065263 0.107143 -0.495722
v -0.000000 0.107143 -0.500000
v 0.065263 0.107143 -0.495722
v 0.129410 0.107143 -0.482963
v 0.191342 0.107143 -0.461940
v 0.250000 0.107143 -0.433013
v 0.304381 0.107143 -0.396677
v 0.353553 0.107143 -0.353553
v 0.396677 0.107143 -0.304381
v 0.433013 0.107143 -0.250000
v 0.461940 0.107143 -0.191342
v 0.482963 0.107143 -0.129410
v 0.495722 0.107143 -0.065263
v 0.500000 0.321429 0.000000
v 0.495722 0.321429 0.065263
v 0.482963 0.321429 0.129410
v 0.461940 0.321429 0.191342
v 0.433013 0.321429 0.250000
v 0.396677 0.321429 0.304381
v 0.353553 0.321429 0.353553
v 0.304381 0.321429 0.396677
v 0.250000 0.321429 0.433013
v 0.191342 0.321429 0.461940
v 0.129410 0.321429 0.482963
v 0.065263 0.321429 0.495722
v 0.000000 0.321429 0.500000
v -0.065263 0.321429 0.495722
v -0.129410 0.321429 0.482963
v -0.191342 0.321429 0.461940
v -0.250000 0.321429 0.433013
v -0.304381 0.321429 0.396677
v -0.353553 0.321429 0.353553
v -0.396677 0.321429 0.304381
v -0.433013 0.321429 0.250000
v -0.461940 0.321429 0.191342
v -0.482963 0.321429 0.129410
v -0.495722 0.321429 0.065263
v -0.500000 0.321429 0.000000
v -0.495722 0.321429 -0.065263
v -0.482963 0.321429 -0.129410
v -0.461940 0.321429 -0.191342
v -0.433013 0.321429 -0.250000
v -0.396677 0.321429 -0.304381
v -0.353553 0.321429 -0.353553
v -0.304381 0.321429 -0.396677
v -0.250000 0.321429 -0.433013
v -0.191342 0.321429 -0.461940
v -0.129410 0.321429 -0.482963
v -0.065263 0.321429 -0.495722
v -0.000000 0.321429 -0.500000
v 0.065263 0.321429 -0.495722
v 0.129410 0.321429 -0.482963
v 0.191342 0.321429 -0.461940
v 0.250000 0.321429 -0.433013
v 0.304381 0.321429 -0.396677
v 0.353553 0.321429 -0.353553
v 0.396677 0.321429 -0.304381
v 0.433013 0.321429 -0.250000
v 0.461940 0.321429 -0.191342
v 0.482963 0.321429 -0.129410
v 0.495722 0.321429 -0.065263
v 0.500000 0.535714 0.000000
v 0.495722 0.535714 0.065263
v 0.482963 0.535714 0.129410
v 0.461940 0.535714 0.191342
v 0.433013 0.535714 0.250000
v 0.396677 0.535714 0.304381
v 0.353553 0.535714 0.353553
v 0.304381 0.535714 0.396677
v 0.250000 0.535714 0.433013
v 0.191342 0.535714 0.461940
v 0.129410 0.535714 0.482963
v 0.065263 0.535714 0.495722
v 0.000000 0.535714 0.500000
v -0.065263 0.535714 0.495722
v -0.129410 0.535714 0.482963
v -0.191342 0.535714 0.461940
v -0.250000 0.535714 0.433013
v -0.304381 0.535714 0.396677
v -0.353553 0.535714 0.353553
v -0.396677 0.535714 0.304381
v -0.433013 0.535714 0.250000
v -0.461940 0.535714 0.191342
v -0.482963 0.535714 0.129410
v -0.495722 0.535714 0.065263
v -0.500000 0.535714 0.000000
v -0.495722 0.535714 -0.065263
v -0.482963 0.535714 -0.129410
v -0.461940 0.535714 -0.191342
v -0.433013 0.535714 -0.250000
v -0.396677 0.535714 -0.304381
v -0.353553 0.535714 -0.353553
v -0.304381 0.535714 -0.396677
v -0.250000 0.535714 -0.433013
v -0.191342 0.535714 -0.461940
v -0.129410 0.535714 -0.482963
v -0.065263 0.535714 -0.495722
v -0.000000 0.535714 -0.500000
v 0.065263 0.535714 -0.495722
v 0.129410 0.535714 -0.482963
v 0.191342 0.535714 -0.461940
v 0.250000 0.535714 -0.433013
v 0.304381 0.535714 -0.396677
v 0.353553 0.535714 -0.353553
v 0.396677 0.535714 -0.304381
v 0.433013 0.535714 -0.250000
v 0.461940 0.535714 -0.191342
v 0.482963 0.535714 -0.129410
v 0.495722 0.535714 -0.065263
v 0.495722 0.815263 0.000000
v 0.491481 0.815263 0.064705
v 0.478831 0.815263 0.128302
v 0.457988 0.815263 0.189705
v 0.429308 0.815263 0.247861
v 0.393283 0.815263 0.301777
v 0.350529 0.815263 0.350529
v 0.301777 0.815263 0.393283
v 0.247861 0.815263 0.429308
v 0.189705 0.815263 0.457988
v 0.128302 0.815263 0.478831
v 0.064705 0.815263 0.491481
v 0.000000 0.815263 0.495722
v -0.064705 0.815263 0.491481
v -0.128302 0.815263 0.478831
v -0.189705 0.815263 0.457988
v -0.247861 0.815263 0.429308
v -0.301777 0.815263 0.393283
v -0.350529 0.815263 0.350529
v -0.393283 0.815263 0.301777
v -0.429308 0.815263 0.247861
v -0.457988 0.815263 0.189705
v -0.478831 0.815263 0.128302
v -0.491481 0.815263 0.064705
v -0.495722 0.815263 0.000000
v -0.491481 0.815263 -0.064705
v -0.478831 0.815263 -0.128302
v -0.457988 0.815263 -0.189705
v -0.429308 0.815263 -0.247861
v -0.393283 0.815263 -0.301777
v -0.350529 0.815263 -0.350529
v -0.301777 0.815263 -0.393283
v -0.247861 0.815263 -0.429308
v -0.189705 0.815263 -0.457988
v -0.128302 0.815263 -0.478831
v -0.064705 0.815263 -0.491481
v -0.000000 0.815263 -0.495722
v 0.064705 0.815263 -0.491481
v 0.128302 0.815263 -0.478831
v 0.189705 0.815263 -0.457988
v 0.247861 0.815263 -0.429308
v 0.301777 0.815263 -0.393283
v 0.350529 0.815263 -0.350529
v 0.393283 0.815263 -0.301777
v 0.429308 0.815263 -0.247861
v 0.457988 0.815263 -0.189705
v 0.478831 0.815263 -0.128302
v 0.491481 0.815263 -0.064705
v 0.482963 0.879410 0.000000
v 0.478831 0.879410 0.063039
v 0.466506 0.879410 0.125000
v 0.446200 0.879410 0.184822
v 0.418258 0.879410 0.241481
v 0.383160 0.879410 0.294009
v 0.341506 0.879410 0.341506
v 0.294009 0.879410 0.383160
v 0.241481 0.879410 0.418258
v 0.184822 0.879410 0.446200
v 0.125000 0.879410 0.466506
v 0.063039 0.879410 0.478831
v 0.000000 0.879410 0.482963
v -0.063039 0.879410 0.478831
v -0.125000 0.879410 0.466506
v -0.184822 0.879410 0.446200
v -0.241481 0.879410 0.418258
v -0.294009 0.879410 0.383160
v -0.341506 0.879410 0.341506
v -0.383160 0.879410 0.294009
v -0.418258 0.879410 0.241481
v -0.446200 0.879410 0.184822
v -0.466506 0.879410 0.125000
v -0.478831 0.879410 0.063039
v -0.482963 0.879410 0.000000
v -0.478831 0.879410 -0.063039
v -0.466506 0.879410 -0.125000
v -0.446200 0.879410 -0.184822
v -0.418258 0.879410 -0.241481
v -0.383160 0.879410 -0.294009
v -0.341506 0.879410 -0.341506
v -0.294009 0.879410 -0.383160
v -0.241481 0.879410 -0.418258
v -0.184822 0.879410 -0.446200
v -0.125000 0.879410 -0.466506
v -0.063039 0.879410 -0.478831
v -0.000000 0.879410 -0.482963
v 0.063039 0.879410 -0.478831
v 0.125000 0.879410 -0.466506
v 0.184822 0.879410 -0.446200
v 0.241481 0.879410 -0.418258
v 0.294009 0.879410 -0.383160
v 0.341506 0.879410 -0.341506
v 0.383160 0.879410 -0.294009
v 0.418258 0.879410 -0.241481
v 0.446200 0.879410 -0.184822
v 0.466506 0.879410 -0.125000
v 0.478831 0.879410 -0.063039
v 0.461940 0.941342 0.000000
v 0.457988 0.941342 0.060295
v 0.446200 0.941342 0.119559
v 0.426777 0.941342 0.176777
v 0.400052 0.941342 0.230970
v 0.366481 0.941342 0.281211
v 0.326641 0.941342 0.326641
v 0.281211 0.941342 0.366481
v 0.230970 0.941342 0.400052
v 0.176777 0.941342 0.426777
v 0.119559 0.941342 0.446200
v 0.060295 0.941342 0.457988
v 0.000000 0.941342 0.461940
v -0.060295 0.941342 0.457988
v -0.119559 0.941342 0.446200
v -0.176777 0.941342 0.426777
v -0.230970 0.941342 0.400052
v -0.281211 0.941342 0.366481
v -0.326641 0.941342 0.326641
v -0.366481 0.941342 0.281211
v -0.400052 0.941342 0.230970
v -0.426777 0.941342 0.176777
v -0.446200 0.941342 0.119559
v -0.457988 0.941342 0.060295
v -0.461940 0.941342 0.000000
v -0.457988 0.941342 -0.060295
v -0.446200 0.941342 -0.119559
v -0.426777 0.941342 -0.176777
v -0.400052 0.941342 -0.230970
v -0.366481 0.941342 -0.281211
v -0.326641 0.941342 -0.326641
v -0.281211 0.941342 -0.366481
v -0.230970 0.941342 -0.400052
v -0.176777 0.941342 -0.426777
v -0.119559 0.941342 -0.446200
v -0.060295 0.941342 -0.457988
v -0.000000 0.941342 -0.461940
v 0.060295 0.941342 -0.457988
v 0.119559 0.941342 -0.446200
v 0.176777 0.941342 -0.426777
v 0.230970 0.941342 -0.400052
v 0.281211 0.941342 -0.366481
v 0.326641 0.941342 -0.326641
v 0.366481 0.941342 -0.281211
v 0.400052 0.941342 -0.230970
v 0.426777 0.941342 -0.176777
v 0.446200 0.941342 -0.119559
v 0.457988 0.941342 -0.060295
v 0.433013 1.000000 0.000000
v 0.429308 1.000000 0.056519
v 0.418258 1.000000 0.112072
v 0.400052 1.000000 0.165707
v 0.375000 1.000000 0.216506
v 0.343532 1.000000 0.263601
v 0.306186 1.000000 0.306186
v 0.263601 1.000000 0.343532
v 0.216506 1.000000 0.375000
v 0.165707 1.000000 0.400052
v 0.112072 1.000000 0.418258
v 0.056519 1.000000 0.429308
v 0.000000 1.000000 0.433013
v -0.056519 1.000000 0.429308
v -0.112072 1.000000 0.418258
v -0.165707 1.000000 0.400052
v -0.216506 1.000000 0.375000
v -0.263601 1.000000 0.343532
v -0.306186 1.000000 0.306186
v -0.343532 1.000000 0.263601
v -0.375000 1.000000 0.216506
v -0.400052 1.000000 0.165707
v -0.418258 1.000000 0.112072
v -0.429308 1.000000 0.056519
v -0.433013 1.000000 0.000000
v -0.429308 1.000000 -0.056519
v -0.418258 1.000000 -0.112072
v -0.400052 1.000000 -0.165707
v -0.375000 1.000000 -0.216506
v -0.343532 1.000000 -0.263601
v -0.306186 1.000000 -0.306186
v -0.263601 1.000000 -0.343532
v -0.216506 1.000000 -0.375000
v -0.165707 1.000000 -0.400052
v -0.112072 1.000000 -0.418258
v -0.056519 1.000000 -0.429308
v -0.000000 1.000000 -0.433013
v 0.056519 1.000000 -0.429308
v 0.112072 1.000000 -0.418258
v 0.165707 1.000000 -0.400052
v 0.216506 1.000000 -0.375000
v 0.263601 1.000000 -0.343532
v 0.306186 1.000000 -0.306186
v 0.343532 1.000000 -0.263601
v 0.375000 1.000000 -0.216506
v 0.400052 1.000000 -0.165707
v 0.418258 1.000000 -0.112072
v 0.429308 1.000000 -0.056519
v 0.396677 1.054381 0.000000
v 0.393283 1.054381 0.051777
v 0.383160 1.054381 0.102667
v 0.366481 1.054381 0.151802
v 0.343532 1.054381 0.198338
v 0.314705 1.054381 0.241481
v 0.280493 1.054381 0.280493
v 0.241481 1.054381 0.314705
v 0.198338 1.054381 0.343532
v 0.151802 1.054381 0.366481
v 0.102667 1.054381 0.383160
v 0.051777 1.054381 0.393283
v 0.000000 1.054381 0.396677
v -0.051777 1.054381 0.393283
v -0.102667 1.054381 0.383160
v -0.151802 1.054381 0.366481
v -0.198338 1.054381 0.343532
v -0.241481 1.054381 0.314705
v -0.280493 1.054381 0.280493
v -0.314705 1.054381 0.241481
v -0.343532 1.054381 0.198338
v -0.366481 1.054381 0.151802
v -0.383160 1.054381 0.102667
v -0.393283 1.054381 0.051777
v -0.396677 1.054381 0.000000
v -0.393283 1.054381 -0.051777
v -0.383160 1.054381 -0.102667
v -0.366481 1.054381 -0.151802
v -0.343532 1.054381 -0.198338
v -0.314705 1.054381 -0.241481
v -0.280493 1.054381 -0.280493
v -0.241481 1.054381 -0.314705
v -0.198338 1.054381 -0.343532
v -0.151802 1.054381 -0.366481
v -0.102667 1.054381 -0.383160
v -0.051777 1.054381 -0.393283
v -0.000000 1.054381 -0.396677
v 0.051777 1.054381 -0.393283
v 0.102667 1.054381 -0.383160
v 0.151802 1.054381 -0.366481
v 0.198338 1.054381 -0.343532
v 0.241481 1.054381 -0.314705
v 0.280493 1.054381 -0.280493
v 0.314705 1.054381 -0.241481
v 0.343532 1.054381 -0.198338
v 0.366481 1.054381 -0.151802
v 0.383160 1.054381 -0.102667
v 0.393283 1.054381 -0.051777
v 0.353553 1.103553 0.000000
v 0.350529 1.103553 0.046148
v 0.341506 1.103553 0.091506
v 0.326641 1.103553 0.135299
v 0.306186 1.103553 0.176777
v 0.280493 1.103553 0.215230
v 0.250000 1.103553 0.250000
v 0.215230 1.103553 0.280493
v 0.176777 1.103553 0.306186
v 0.135299 1.103553 0.326641
v 0.091506 1.103553 0.341506
v 0.046148 1.103553 0.350529
v 0.000000 1.103553 0.353553
v -0.046148 1.103553 0.350529
v -0.091506 1.103553 0.341506
v -0.135299 1.103553 0.326641
v -0.176777 1.103553 0.306186
v -0.215230 1.103553 0.280493
v -0.250000 1.103553 0.250000
v -0.280493 1.103553 0.215230
v -0.306186 1.103553 0.176777
v -0.326641 1.103553 0.135299
v -0.341506 1.103553 0.091506
v -0.350529 1.103553 0.046148
v -0.353553 1.103553 0.000000
v -0.350529 1.103553 -0.046148
v -0.341506 1.103553 -0.091506
v -0.326641 1.103553 -0.135299
v -0.306186 1.103553 -0.176777
v -0.280493 1.103553 -0.215230
v -0.250000 1.103553 -0.250000
v -0.215230 1.103553 -0.280493
v -0.176777 1.103553 -0.306186
v -0.135299 1.103553 -0.326641
v -0.091506 1.103553 -0.341506
v -0.046148 1.103553 -0.350529
v -0.000000 1.103553 -0.353553
v 0.046148 1.103553 -0.350529
v 0.091506 1.103553 -0.341506
v 0.135299 1.103553 -0.326641
v 0.176777 1.103553 -0.306186
v 0.215230 1.103553 -0.280493
v 0.250000 1.103553 -0.250000
v 0.280493 1.103553 -0.215230
v 0.306186 1.103553 -0.176777
v 0.326641 1.103553 -0.135299
v 0.341506 1.103553 -0.091506
v 0.350529 1.103553 -0.046148
v 0.304381 1.146677 0.000000
v 0.301777 1.146677 0.039730
v 0.294009 1.146677 0.078780
v 0.281211 1.146677 0.116481
v 0.263601 1.146677 0.152190
v 0.241481 1.146677 0.185295
v 0.215230 1.146677 0.215230
v 0.185295 1.146677 0.241481
v 0.152190 1.146677 0.263601
v 0.116481 1.146677 0.281211
v 0.078780 1.146677 0.294009
v 0.039730 1.146677 0.301777
v 0.000000 1.146677 0.304381
v -0.039730 1.146677 0.301777
v -0.078780 1.146677 0.294009
v -0.116481 1.146677 0.281211
v -0.152190 1.146677 0.263601
v -0.185295 1.146677 0.241481
v -0.215230 1.146677 0.215230
v -0.241481 1.146677 0.185295
v -0.263601 1.146677 0.152190
v -0.281211 1.146677 0.116481
v -0.294009 1.146677 0.078780
v -0.301777 1.146677 0.039730
v -0.304381 1.146677 0.000000
v -0.301777 1.146677 -0.039730
v -0.294009 1.146677 -0.078780
v -0.281211 1.146677 -0.116481
v -0.263601 1.146677 -0.152190
v -0.241481 1.146677 -0.185295
v -0.215230 1.146677 -0.215230
v -0.185295 1.146677 -0.241481
v -0.152190 1.146677 -0.263601
v -0.116481 1.146677 -0.281211
v -0.078780 1.146677 -0.294009
v -0.039730 1.146677 -0.301777
v -0.000000 1.146677 -0.304381
v 0.039730 1.146677 -0.301777
v 0.078780 1.146677 -0.294009
v 0.116481 1.146677 -0.281211
v 0.152190 1.146677 -0.263601
v 0.185295 1.146677 -0.241481
v 0.215230 1.146677 -0.215230
v 0.241481 1.146677 -0.185295
v 0.263601 1.146677 -0.152190
v 0.281211 1.146677 -0.116481
v 0.294009 1.146677 -0.078780
v 0.301777 1.146677 -0.039730
v 0.250000 1.183013 0.000000
v 0.247861 1.183013 0.032632
v 0.241481 1.183013 0.064705
v 0.230970 1.183013 0.095671
v 0.216506 1.183013 0.125000
v 0.198338 1.183013 0.152190
v 0.176777 1.183013 0.176777
v 0.152190 1.183013 0.198338
v 0.125000 1.183013 0.216506
v 0.095671 1.183013 0.230970
v 0.064705 1.183013 0.241481
v 0.032632 1.183013 0.247861
v 0.000000 1.183013 0.250000
v -0.032632 1.183013 0.247861
v -0.064705 1.183013 0.241481
v -0.095671 1.183013 0.230970
v -0.125000 1.183013 0.216506
v -0.152190 1.183013 0.198338
v -0.176777 1.183013 0.176777
v -0.198338 1.183013 0.152190
v -0.216506 1.183013 0.125000
v -0.230970 1.183013 0.095671
v -0.241481 1.183013 0.064705
v -0.247861 1.183013 0.032632
v -0.250000 1.183013 0.000000
v -0.247861 1.183013 -0.032632
v -0.241481 1.183013 -0.064705
v -0.230970 1.183013 -0.095671
v -0.216506 1.183013 -0.125000
v -0.198338 1.183013 -0.152190
v -0.176777 1.183013 -0.176777
v -0.152190 1.183013 -0.198338
v -0.125000 1.183013 -0.216506
v -0.095671 1.183013 -0.230970
v -0.064705 1.183013 -0.241481
v -0.032632 1.183013 -0.247861
v -0.000000 1.183013 -0.250000
v 0.032632 1.183013 -0.247861
v 0.064705 1.183013 -0.241481
v 0.095671 1.183013 -0.230970
v 0.125000 1.183013 -0.216506
v 0.152190 1.183013 -0.198338
v 0.176777 1.183013 -0.176777
v 0.198338 1.183013 -0.152190
v 0.216506 1.183013 -0.125000
v 0.230970 1.183013 -0.095671
v 0.241481 1.183013 -0.064705
v 0.247861 1.183013 -0.032632
v 0.191342 1.211940 0.000000
v 0.189705 1.211940 0.024975
v 0.184822 1.211940 0.049523
v 0.176777 1.211940 0.073223
v 0.165707 1.211940 0.095671
v 0.151802 1.211940 0.116481
v 0.135299 1.211940 0.135299
v 0.116481 1.211940 0.151802
v 0.095671 1.211940 0.165707
v 0.073223 1.211940 0.176777
v 0.049523 1.211940 0.184822
v 0.024975 1.211940 0.189705
v 0.000000 1.211940 0.191342
v -0.024975 1.211940 0.189705
v -0.049523 1.211940 0.184822
v -0.073223 1.211940 0.176777
v -0.095671 1.211940 0.165707
v -0.116481 1.211940 0.151802
v -0.135299 1.211940 0.135299
v -0.151802 1.211940 0.116481
v -0.165707 1.211940 0.095671
v -0.176777 1.211940 0.073223
v -0.184822 1.211940 0.049523
v -0.189705 1.211940 0.024975
v -0.191342 1.211940 0.000000
v -0.189705 1.211940 -0.024975
v -0.184822 1.211940 -0.049523
v -0.176777 1.211940 -0.073223
v -0.165707 1.211940 -0.095671
v -0.151802 1.211940 -0.116481
v -0.135299 1.211940 -0.135299
v -0.116481 1.211940 -0.151802
v -0.095671 1.211940 -0.165707
v -0.073223 1.211940 -0.176777
v -0.049523 1.211940 -0.184822
v -0.024975 1.211940 -0.189705
v -0.000000 1.211940 -0.191342
v 0.024975 1.211940 -0.189705
v 0.049523 1.211940 -0.184822
v 0.073223 1.211940 -0.176777
v 0.095671 1.211940 -0.165707
v 0.116481 1.211940 -0.151802
v 0.135299 1.211940 -0.135299
v 0.151802 1.211940 -0.116481
v 0.165707 1.211940 -0.095671
v 0.176777 1.211940 -0.073223
v 0.184822 1.211940 -0.049523
v 0.189705 1.211940 -0.024975
v 0.129410 1.232963 0.000000
v 0.128302 1.232963 0.016891
v 0.125000 1.232963 0.033494
v 0.119559 1.232963 0.049523
v 0.112072 1.232963 0.064705
v 0.102667 1.232963 0.078780
v 0.091506 1.232963 0.091506
v 0.078780 1.232963 0.102667
v 0.064705 1.232963 0.112072
v 0.049523 1.232963 0.119559
v 0.033494 1.232963 0.125000
v 0.016891 1.232963 0.128302
v 0.000000 1.232963 0.129410
v -0.016891 1.232963 0.128302
v -0.033494 1.232963 0.125000
v -0.049523 1.232963 0.119559
v -0.064705 1.232963 0.112072
v -0.078780 1.232963 0.102667
v -0.091506 1.232963 0.091506
v -0.102667 1.232963 0.078780
v -0.112072 1.232963 0.064705
v -0.119559 1.232963 0.049523
v -0.125000 1.232963 0.033494
v -0.128302 1.232963 0.016891
v -0.129410 1.232963 0.000000
v -0.128302 1.232963 -0.016891
v -0.125000 1.232963 -0.033494
v -0.119559 1.232963 -0.049523
v -0.112072 1.232963 -0.064705
v -0.102667 1.232963 -0.078780
v -0.091506 1.232963 -0.091506
v -0.078780 1.232963 -0.102667
v -0.064705 1.232963 -0.112072
v -0.049523 1.232963 -0.119559
v -0.033494 1.232963 -0.125000
v -0.016891 1.232963 -0.128302
v -0.000000 1.232963 -0.129410
v 0.016891 1.232963 -0.128302
v 0.033494 1.232963 -0.125000
v 0.049523 1.232963 -0.119559
v 0.064705 1.232963 -0.112072
v 0.078780 1.232963 -0.102667
v 0.091506 1.232963 -0.091506
v 0.102667 1.232963 -0.078780
v 0.112072 1.232963 -0.064705
v 0.119559 1.232963 -0.049523
v 0.125000 1.232963 -0.033494
v 0.128302 1.232963 -0.016891
v 0.065263 1.245722 0.000000
v 0.064705 1.245722 0.008519
v 0.063039 1.245722 0.016891
v 0.060295 1.245722 0.024975
v 0.056519 1.245722 0.032632
v 0.051777 1.245722 0.039730
v 0.046148 1.245722 0.046148
v 0.039730 1.245722 0.051777
v 0.032632 1.245722 0.056519
v 0.024975 1.245722 0.060295
v 0.016891 1.245722 0.063039
v 0.008519 1.245722 0.064705
v 0.000000 1.245722 0.065263
v -0.008519 1.245722 0.064705
v -0.016891 1.245722 0.063039
v -0.024975 1.245722 0.060295
v -0.032632 1.245722 0.056519
v -0.039730 1.245722 0.051777
v -0.046148 1.245722 0.046148
v -0.051777 1.245722 0.039730
v -0.056519 1.245722 0.032632
v -0.060295 1.245722 0.024975
v -0.063039 1.245722 0.016891
v -0.064705 1.245722 0.008519
v -0.065263 1.245722 0.000000
v -0.064705 1.245722 -0.008519
v -0.063039 1.245722 -0.016891
v -0.060295 1.245722 -0.024975
v -0.056519 1.245722 -0.032632
v -0.051777 1.245722 -0.039730
v -0.046148 1.245722 -0.046148
v -0.039730 1.245722 -0.051777
v -0.032632 1.245722 -0.056519
v -0.024975 1.245722 -0.060295
v -0.016891 1.245722 -0.063039
v -0.008519 1.245722 -0.064705
v -0.000000 1.245722 -0.065263
v 0.008519 1.245722 -0.064705
v 0.016891 1.245722 -0.063039
v 0.024975 1.245722 -0.060295
v 0.032632 1.245722 -0.056519
v 0.039730 1.245722 -0.051777
v 0.046148 1.245722 -0.046148
v 0.051777 1.245722 -0.039730
v 0.056519 1.245722 -0.032632
v 0.060295 1.245722 -0.024975
v 0.063039 1.245722 -0.016891
v 0.064705 1.245722 -0.008519
v 0.000000 1.250000 0.000000
f 2 3 1
f 3 4 1
f 4 5 1
f 5 6 1
f 6 7 1
f 7 8 1
f 8 9 1
f 9 10 1
f 10 11 1
f 11 12 1
f 12 13 1
f 13 14 1
f 14 15 1
f 15 16 1
f 16 17 1
f 17 18 1
f 18 19 1
f 19 20 1
f 20 21 1
f 21 22 1
f 22 23 1
f 23 24 1
f 24 25 1
f 25 26 1
f 26 27 1
f 27 28 1
f 28 29 1
f 29 30 1
f 30 31 1
f 31 32 1
f 32 33 1
f 33 34 1
f 34 35 1
f 35 36 1
f 36 37 1
f 37 38 1
f 38 39 1
f 39 40 1
f 40 41 1
f 41 42 1
f 42 43 1
f 43 44 1
f 44 45 1
f 45 46 1
f 46 47 1
f 47 48 1
f 48 49 1
f 49 2 1
f 51 3 2
f 50 51 2
f 52 4 3
f 51 52 3
f 53 5 4
f 52 53 4
f 54 6 5
f 53 54 5
f 55 7 6
f 54 55 6
f 56 8 7
f 55 56 7
f 57 9 8
f 56 57 8
f 58 10 9
f 57 58 9
f 59 11 10
f 58 59 10
f 60 12 11
f 59 60 11
f 61 13 12
f 60 61 12
f 62 14 13
f 61 62 13
f 63 15 14
f 62 63 14
f 64 16 15
f 63 64 15
f 65 17 16
f 64 65 16
f 66 18 17
f 65 66 17
f 67 19 18
f 66 67 18
f 68 20 19
f 67 68 19
f 69 21 20
f 68 69 20
f 70 22 21
f 69 70 21
f 71 23 22
f 70 71 22
f 72 24 23
f 71 72 23
f 73 25 24
f 72 73 24
f 74 26 25
f 73 74 25
f 75 27 26
f 74 75 26
f 76 28 27
f 75 76 27
f 77 29 28
f 76 77 28
f 78 30 29
f 77 78 29
f 79 31 30
f 78 79 30
f 80 32 31
f 79 80 31
f 81 33 32
f 80 81 32
f 82 34 33
f 81 82 33
f 83 35 34
f 82 83 34
f 84 36 35
f 83 84 35
f 85 37 36
f 84 85 36
f 86 38 37
f 85 86 37
f 87 39 38
f 86 87 38
f 88 40 39
f 87 88 39
f 89 41 40
f 88 89 40
f 90 42 41
f 89 90 41
f 91 43 42
f 90 91 42
f 92 44 43
f 91 92 43
f 93 45 44
f 92 93 44
f 94 46 45
f 93 94 45
f 95 47 46
f 94 95 46
f 96 48 47
f 95 96 47
f 97 49 48
f 96 97 48
f 50 2 49
f 97 50 49
f 99 51 50
f 98 99 50
f 100 52 51
f 99 100 51
f 101 53 52
f 100 101 52
f 102 54 53
f 101 102 53
f 103 55 54
f 102 103 54
f 104 56 55
f 103 104 55
f 105 57 56
f 104 105 56
f 106 58 57
f 105 106 57
f 107 59 58
f 106 107 58
f 108 60 59
f 107 108 59
f 109 61 60
f 108 109 60
f 110 62 61
f 109 110 61
f 111 63 62
f 110 111 62
f 112 64 63
f 111 112 63
f 113 65 64
f 112 113 64
f 114 66 65
f 113 114 65
f 115 67 66
f 114 115 66
f 116 68 67
f 115 116 67
f 117 69 68
f 116 117 68
f 118 70 69
f 117 118 69
f 119 71 70
f 118 119 70
f 120 72 71
f 119 120 71
f 121 73 72
f 120 121 72
f 122 74 73
f 121 122 73
f 123 75 74
f 122 123 74
f 124 76 75
f 123 124 75
f 125 77 76
f 124 125 76
f 126 78 77
f 125 126 77
f 127 79 78
f 126 127 78
f 128 80 79
f 127 128 79
f 129 81 80
f 128 129 80
f 130 82 81
f 129 130 81
f 131 83 82
f 130 131 82
f 132 84 83
f 131 132 83
f 133 85 84
f 132 133 84
f 134 86 85
f 133 134 85
f 135 87 86
f 134 135 86
f 136 88 87
f 135 136 87
f 137 89 88
f 136 137 88
f 138 90 89
f 137 138 89
f 139 91 90
f 138 139 90
f 140 92 91
f 139 140 91
f 141 93 92
f 140 141 92
f 142 94 93
f 141 142 93
f 143 95 94
f 142 143 94
f 144 96 95
f 143 144 95
f 145 97 96
f 144 145 96
f 98 50 97
f 145 98 97
f 147 99 98
f 146 147 98
f 148 100 99
f 147 148 99
f 149 101 100
f 148 149 100
f 150 102 101
f 149 150 101
f 151 103 102
f 150 151 102
f 152 104 103
f 151 152 103
f 153 105 104
f 152 153 104
f 154 106 105
f 153 154 105
f 155 107 106
f 154 155 106
f 156 108 107
f 155 156 107
f 157 109 108
f 156 157 108
f 158 110 109
f 157 158 109
f 159 111 110
f 158 159 110
f 160 112 111
f 159 160 111
f 161 113 112
f 160 161 112
f 162 114 113
f 161 162 113
f 163 115 114
f 162 163 114
f 164 116 115
f 163 164 115
f 165 117 116
f 164 165 116
f 166 118 117
f 165 166 117
f 167 119 118
f 166 167 118
f 168 120 119
f 167 168 119
f 169 121 120
f 168 169 120
f 170 122 121
f 169 170 121
f 171 123 122
f 170 171 122
f 172 124 123
f 171 172 123
f 173 125 124
f 172 173 124
f 174 126 125
f 173 174 125
f 175 127 126
f 174 175 126
f 176 128 127
f 175 176 127
f 177 129 128
f 176 177 128
f 178 130 129
f 177 178 129
f 179 131 130
f 178 179 130
f 180 132 131
f 179 180 131
f 181 133 132
f 180 181 132
f 182 134 133
f 181 182 133
f 183 135 134
f 182 183 134
f 184 136 135
f 183 184 135
f 185 137 136
f 184 185 136
f 186 138 137
f 185 186 137
f 187 139 138
f 186 187 138
f 188 140 139
f 187 188 139
f 189 141 140
f 188 189 140
f 190 142 141
f 189 190 141
f 191 143 142
f 190 191 142
f 192 144 143
f 191 192 143
f 193 145 144
f 192 193 144
f 146 98 145
f 193 146 145
f 195 147 146
f 194 195 146
f 196 148 147
f 195 196 147
f 197 149 148
f 196 197 148
f 198 150 149
f 197 198 149
f 199 151 150
f 198 199 150
f 200 152 151
f 199 200 151
f 201 153 152
f 200 201 152
f 202 154 153
f 201 202 153
f 203 155 154
f 202 203 154
f 204 156 155
f 203 204 155
f 205 157 156
f 204 205 156
f 206 158 157
f 205 206 157
f 207 159 158
f 206 207 158
f 208 160 159
f 207 208 159
f 209 161 160
f 208 209 160
f 210 162 161
f 209 210 161
f 211 163 162
f 210 211 162
f 212 164 163
f 211 212 163
f 213 165 164
f 212 213 164
f 214 166 165
f 213 214 165
f 215 167 166
f 214 215 166
f 216 168 167
f 215 216 167
f 217 169 168
f 216 217 168
f 218 170 169
f 217 218 169
f 219 171 170
f 218 219 170
f 220 172 171
f 219 220 171
f 221 173 172
f 220 221 172
f 222 174 173
f 221 222 173
f 223 175 174
f 222 223 174
f 224 176 175
f 223 224 175
f 225 177 176
f 224 225 176
f 226 178 177
f 225 226 177
f 227 179 178
f 226 227 178
f 228 180 179
f 227 228 179
f 229 181 180
f 228 229 180
f 230 182 181
f 229 230 181
f 231 183 182
f 230 231 182
f 232 184 183
f 231 232 183
f 233 185 184
f 232 233 184
f 234 186 185
f 233 234 185
f 235 187 186
f 234 235 186
f 236 188 187
f 235 236 187
f 237 189 188
f 236 237 188
f 238 190 189
f 237 238 189
f 239 191 190
f 238 239 190
f 240 192 191
f 239 240 191
f 241 193 192
f 240 241 192
f 194 146 193
f 241 194 193
f 243 195 194
f 242 243 194
f 244 196 195
f 243 244 195
f 245 197 196
f 244 245 196
f 246 198 197
f 245 246 197
f 247 199 198
f 246 247 198
f 248 200 199
f 247 248 199
f 249 201 200
f 248 249 200
f 250 202 201
f 249 250 201
f 251 203 202
f 250 251 202
f 252 204 203
f 251 252 203
f 253 205 204
f 252 253 204
f 254 206 205
f 253 254 205
f 255 207 206
f 254 255 206
f 256 208 207
f 255 256 207
f 257 209 208
f 256 257 208
f 258 210 209
f 257 258 209
f 259 211 210
f 258 259 210
f 260 212 211
f 259 260 211
f 261 213 212
f 260 261 212
f 262 214 213
f 261 262 213
f 263 215 214
f 262 263 214
f 264 216 215
f 263 264 215
f 265 217 216
f 264 265 216
f 266 218 217
f 265 266 217
f 267 219 218
f 266 267 218
f 268 220 219
f 267 268 219
f 269 221 220
f 268 269 220
f 270 222 221
f 269 270 221
f 271 223 222
f 270 271 222
f 272 224 223
f 271 272 223
f 273 225 224
f 272 273 224
f 274 226 225
f 273 274 225
f 275 227 226
f 274 275 226
f 276 228 227
f 275 276 227
f 277 229 228
f 276 277 228
f 278 230 229
f 277 278 229
f 279 231 230
f 278 279 230
f 280 232 231
f 279 280 231
f 281 233 232
f 280 281 232
f 282 234 233
f 281 282 233
f 283 235 234
f 282 283 234
f 284 236 235
f 283 284 235
f 285 237 236
f 284 285 236
f 286 238 237
f 285 286 237
f 287 239 238
f 286 287 238
f 288 240 239
f 287 288 239
f 289 241 240
f 288 289 240
f 242 194 241
f 289 242 241
f 291 243 242
f 290 291 242
f 292 244 243
f 291 292 243
f 293 245 244
f 292 293 244
f 294 246 245
f 293 294 245
f 295 247 246
f 294 295 246
f 296 248 247
f 295 296 247
f 297 249 248
f 296 297 248
f 298 250 249
f 297 298 249
f 299 251 250
f 298 299 250
f 300 252 251
f 299 300 251
f 301 253 252
f 300 301 252
f 302 254 253
f 301 302 253
f 303 255 254
f 302 303 254
f 304 256 255
f 303 304 255
f 305 257 256
f 304 305 256
f 306 258 257
f 305 306 257
f 307 259 258
f 306 307 258
f 308 260 259
f 307 308 259
f 309 261 260
f 308 309 260
f 310 262 261
f 309 310 261
f 311 263 262
f 310 311 262
f 312 264 263
f 311 312 263
f 313 265 264
f 312 313 264
f 314 266 265
f 313 314 265
f 315 267 266
f 314 315 266
f 316 268 267
f 315 316 267
f 317 269 268
f 316 317 268
f 318 270 269
f 317 318 269
f 319 271 270
f 318 319 270
f 320 272 271
f 319 320 271
f 321 273 272
f 320 321 272
f 322 274 273
f 321 322 273
f 323 275 274
f 322 323 274
f 324 276 275
f 323 324 275
f 325 277 276
f 324 325 276
f 326 278 277
f 325 326 277
f 327 279 278
f 326 327 278
f 328 280 279
f 327 328 279
f 329 281 280
f 328 329 280
f 330 282 281
f 329 330 281
f 331 283 282
f 330 331 282
f 332 284 283
f 331 332 283
f 333 285 284
f 332 333 284
f 334 286 285
f 333 334 285
f 335 287 286
f 334 335 286
f 336 288 287
f 335 336 287
f 337 289 288
f 336 337 288
f 290 242 289
f 337 290 289
f 339 291 290
f 338 339 290
f 340 292 291
f 339 340 291
f 341 293 292
f 340 341 292
f 342 294 293
f 341 342 293
f 343 295 294
f 342 343 294
f 344 296 295
f 343 344 295
f 345 297 296
f 344 345 296
f 346 298 297
f 345 346 297
f 347 299 298
f 346 347 298
f 348 300 299
f 347 348 299
f 349 301 300
f 348 349 300
f 350 302 301
f 349 350 301
f 351 303 302
f 350 351 302
f 352 304 303
f 351 352 303
f 353 305 304
f 352 353 304
f 354 306 305
f 353 354 305
f 355 307 306
f 354 355 306
f 356 308 307
f 355 356 307
f 357 309 308
f 356 357 308
f 358 310 309
f 357 358 309
f 359 311 310
f 358 359 310
f 360 312 311
f 359 360 311
f 361 313 312
f 360 361 312
f 362 314 313
f 361 362 313
f 363 315 314
f 362 363 314
f 364 316 315
f 363 364 315
f 365 317 316
f 364 365 316
f 366 318 317
f 365 366 317
f 367 319 318
f 366 367 318
f 368 320 319
f 367 368 319
f 369 321 320
f 368 369 320
f 370 322 321
f 369 370 321
f 371 323 322
f 370 371 322
f 372 324 323
f 371 372 323
f 373 325 324
f 372 373 324
f 374 326 325
f 373 374 325
f 375 327 326
f 374 375 326
f 376 328 327
f 375 376 327
f 377 329 328
f 376 377 328
f 378 330 329
f 377 378 329
f 379 331 330
f 378 379 330
f 380 332 331
f 379 380 331
f 381 333 332
f 380 381 332
f 382 334 333
f 381 382 333
f 383 335 334
f 382 383 334
f 384 336 335
f 383 384 335
f 385 337 336
f 384 385 336
f 338 290 337
f 385 338 337
f 387 339 338
f 386 387 338
f 388 340 339
f 387 388 339
f 389 341 340
f 388 389 340
f 390 342 341
f 389 390 341
f 391 343 342
f 390 391 342
f 392 344 343
f 391 392 343
f 393 345 344
f 392 393 344
f 394 346 345
f 393 394 345
f 395 347 346
f 394 395 346
f 396 348 347
f 395 396 347
f 397 349 348
f 396 397 348
f 398 350 349
f 397 398 349
f 399 351 350
f 398 399 350
f 400 352 351
f 399 400 351
f 401 353 352
f 400 401 352
f 402 354 353
f 401 402 353
f 403 355 354
f 402 403 354
f 404 356 355
f 403 404 355
f 405 357 356
f 404 405 356
f 406 358 357
f 405 406 357
f 407 359 358
f 406 407 358
f 408 360 359
f 407 408 359
f 409 361 360
f 408 409 360
f 410 362 361
f 409 410 361
f 411 363 362
f 410 411 362
f 412 364 363
f 411 412 363
f 413 365 364
f 412 413 364
f 414 366 365
f 413 414 365
f 415 367 366
f 414 415 366
f 416 368 367
f 415 416 367
f 417 369 368
f 416 417 368
f 418 370 369
f 417 418 369
f 419 371 370
f 418 419 370
f 420 372 371
f 419 420 371
f 421 373 372
f 420 421 372
f 422 374 373
f 421 422 373
f 423 375 374
f 422 423 374
f 424 376 375
f 423 424 375
f 425 377 376
f 424 425 376
f 426 378 377
f 425 426 377
f 427 379 378
f 426 427 378
f 428 380 379
f 427 428 379
f 429 381 380
f 428 429 380
f 430 382 381
f 429 430 381
f 431 383 382
f 430 431 382
f 432 384 383
f 431 432 383
f 433 385 384
f 432 433 384
f 386 338 385
f 433 386 385
f 435 387 386
f 434 435 386
f 436 388 387
f 435 436 387
f 437 389 388
f 436 437 388
f 438 390 389
f 437 438 389
f 439 391 390
f 438 439 390
f 440 392 391
f 439 440 391
f 441 393 392
f 440 441 392
f 442 394 393
f 441 442 393
f 443 395 394
f 442 443 394
f 444 396 395
f 443 444 395
f 445 397 396
f 444 445 396
f 446 398 397
f 445 446 397
f 447 399 398
f 446 447 398
f 448 400 399
f 447 448 399
f 449 401 400
f 448 449 400
f 450 402 401
f 449 450 401
f 451 403 402
f 450 451 402
f 452 404 403
f 451 452 403
f 453 405 404
f 452 453 404
f 454 406 405
f 453 454 405
f 455 407 406
f 454 455 406
f 456 408 407
f 455 456 407
f 457 409 408
f 456 457 408
f 458 410 409
f 457 458 409
f 459 411 410
f 458 459 410
f 460 412 411
f 459 460 411
f 461 413 412
f 460 461 412
f 462 414 413
f 461 462 413
f 463 415 414
f 462 463 414
f 464 416 415
f 463 464 415
f 465 417 416
f 464 465 416
f 466 418 417
f 465 466 417
f 467 419 418
f 466 467 418
f 468 420 419
f 467 468 419
f 469 421 420
f 468 469 420
f 470 422 421
f 469 470 421
f 471 423 422
f 470 471 422
f 472 424 423
f 471 472 423
f 473 425 424
f 472 473 424
f 474 426 425
f 473 474 425
f 475 427 426
f 474 475 426
f 476 428 427
f 475 476 427
f 477 429 428
f 476 477 428
f 478 430 429
f 477 478 429
f 479 431 430
f 478 479 430
f 480 432 431
f 479 480 431
f 481 433 432
f 480 481 432
f 434 386 433
f 481 434 433
f 483 435 434
f 482 483 434
f 484 436 435
f 483 484 435
f 485 437 436
f 484 485 436
f 486 438 437
f 485 486 437
f 487 439 438
f 486 487 438
f 488 440 439
f 487 488 439
f 489 441 440
f 488 489 440
f 490 442 441
f 489 490 441
f 491 443 442
f 490 491 442
f 492 444 443
f 491 492 443
f 493 445 444
f 492 493 444
f 494 446 445
f 493 494 445
f 495 447 446
f 494 495 446
f 496 448 447
f 495 496 447
f 497 449 448
f 496 497 448
f 498 450 449
f 497 498 449
f 499 451 450
f 498 499 450
f 500 452 451
f 499 500 451
f 501 453 452
f 500 501 452
f 502 454 453
f 501 502 453
f 503 455 454
f 502 503 454
f 504 456 455
f 503 504 455
f 505 457 456
f 504 505 456
f 506 458 457
f 505 506 457
f 507 459 458
f 506 507 458
f 508 460 459
f 507 508 459
f 509 461 460
f 508 509 460
f 510 462 461
f 509 510 461
f 511 463 462
f 510 511 462
f 512 464 463
f 511 512 463
f 513 465 464
f 512 513 464
f 514 466 465
f 513 514 465
f 515 467 466
f 514 515 466
f 516 468 467
f 515 516 467
f 517 469 468
f 516 517 468
f 518 470 469
f 517 518 469
f 519 471 470
f 518 519 470
f 520 472 471
f 519 520 471
f 521 473 472
f 520 521 472
f 522 474 473
f 521 522 473
f 523 475 474
f 522 523 474
f 524 476 475
f 523 524 475
f 525 477 476
f 524 525 476
f 526 478 477
f 525 526 477
f 527 479 478
f 526 527 478
f 528 480 479
f 527 528 479
f 529 481 480
f 528 529 480
f 482 434 481
f 529 482 481
f 531 483 482
f 530 531 482
f 532 484 483
f 531 532 483
f 533 485 484
f 532 533 484
f 534 486 485
f 533 534 485
f 535 487 486
f 534 535 486
f 536 488 487
f 535 536 487
f 537 489 488
f 536 537 488
f 538 490 489
f 537 538 489
f 539 491 490
f 538 539 490
f 540 492 491
f 539 540 491
f 541 493 492
f 540 541 492
f 542 494 493
f 541 542 493
f 543 495 494
f 542 543 494
f 544 496 495
f 543 544 495
f 545 497 496
f 544 545 496
f 546 498 497
f 545 546 497
f 547 499 498
f 546 547 498
f 548 500 499
f 547 548 499
f 549 501 500
f 548 549 500
f 550 502 501
f 549 550 501
f 551 503 502
f 550 551 502
f 552 504 503
f 551 552 503
f 553 505 504
f 552 553 504
f 554 506 505
f 553 554 505
f 555 507 506
f 554 555 506
f 556 508 507
f 555 556 507
f 557 509 508
f 556 557 508
f 558 510 509
f 557 558 509
f 559 511 510
f 558 559 510
f 560 512 511
f 559 560 511
f 561 513 512
f 560 561 512
f 562 514 513
f 561 562 513
f 563 515 514
f 562 563 514
f 564 516 515
f 563 564 515
f 565 517 516
f 564 565 516
f 566 518 517
f 565 566 517
f 567 519 518
f 566 567 518
f 568 520 519
f 567 568 519
f 569 521 520
f 568 569 520
f 570 522 521
f 569 570 521
f 571 523 522
f 570 571 522
f 572 524 523
f 571 572 523
f 573 525 524
f 572 573 524
f 574 526 525
f 573 574 525
f 575 527 526
f 574 575 526
f 576 528 527
f 575 576 527
f 577 529 528
f 576 577 528
f 530 482 529
f 577 530 529
f 579 531 530
f 578 579 530
f 580 532 531
f 579 580 531
f 581 533 532
f 580 581 532
f 582 534 533
f 581 582 533
f 583 535 534
f 582 583 534
f 584 536 535
f 583 584 535
f 585 537 536
f 584 585 536
f 586 538 537
f 585 586 537
f 587 539 538
f 586 587 538
f 588 540 539
f 587 588 539
f 589 541 540
f 588 589 540
f 590 542 541
f 589 590 541
f 591 543 542
f 590 591 542
f 592 544 543
f 591 592 543
f 593 545 544
f 592 593 544
f 594 546 545
f 593 594 545
f 595 547 546
f 594 595 546
f 596 548 547
f 595 596 547
f 597 549 548
f 596 597 548
f 598 550 549
f 597 598 549
f 599 551 550
f 598 599 550
f 600 552 551
f 599 600 551
f 601 553 552
f 600 601 552
f 602 554 553
f 601 602 553
f 603 555 554
f 602 603 554
f 604 556 555
f 603 604 555
f 605 557 556
f 604 605 556
f 606 558 557
f 605 606 557
f 607 559 558
f 606 607 558
f 608 560 559
f 607 608 559
f 609 561 560
f 608 609 560
f 610 562 561
f 609 610 561
f 611 563 562
f 610 611 562
f 612 564 563
f 611 612 563
f 613 565 564
f 612 613 564
f 614 566 565
f 613 614 565
f 615 567 566
f 614 615 566
f 616 568 567
f 615 616 567
f 617 569 568
f 616 617 568
f 618 570 569
f 617 618 569
f 619 571 570
f 618 619 570
f 620 572 571
f 619 620 571
f 621 573 572
f 620 621 572
f 622 574 573
f 621 622 573
f 623 575 574
f 622 623 574
f 624 576 575
f 623 624 575
f 625 577 576
f 624 625 576
f 578 530 577
f 625 578 577
f 627 579 578
f 626 627 578
f 628 580 579
f 627 628 579
f 629 581 580
f 628 629 580
f 630 582 581
f 629 630 581
f 631 583 582
f 630 631 582
f 632 584 583
f 631 632 583
f 633 585 584
f 632 633 584
f 634 586 585
f 633 634 585
f 635 587 586
f 634 635 586
f 636 588 587
f 635 636 587
f 637 589 588
f 636 637 588
f 638 590 589
f 637 638 589
f 639 591 590
f 638 639 590
f 640 592 591
f 639 640 591
f 641 593 592
f 640 641 592
f 642 594 593
f 641 642 593
f 643 595 594
f 642 643 594
f 644 596 595
f 643 644 595
f 645 597 596
f 644 645 596
f 646 598 597
f 645 646 597
f 647 599 598
f 646 647 598
f 648 600 599
f 647 648 599
f 649 601 600
f 648 649 600
f 650 602 601
f 649 650 601
f 651 603 602
f 650 651 602
f 652 604 603
f 651 652 603
f 653 605 604
f 652 653 604
f 654 606 605
f 653 654 605
f 655 607 606
f 654 655 606
f 656 608 607
f 655 656 607
f 657 609 608
f 656 657 608
f 658 610 609
f 657 658 609
f 659 611 610
f 658 659 610
f 660 612 611
f 659 660 611
f 661 613 612
f 660 661 612
f 662 614 613
f 661 662 613
f 663 615 614
f 662 663 614
f 664 616 615
f 663 664 615
f 665 617 616
f 664 665 616
f 666 618 617
f 665 666 617
f 667 619 618
f 666 667 618
f 668 620 619
f 667 668 619
f 669 621 620
f 668 669 620
f 670 622 621
f 669 670 621
f 671 623 622
f 670 671 622
f 672 624 623
f 671 672 623
f 673 625 624
f 672 673 624
f 626 578 625
f 673 626 625
f 675 627 626
f 674 675 626
f 676 628 627
f 675 676 627
f 677 629 628
f 676 677 628
f 678 630 629
f 677 678 629
f 679 631 630
f 678 679 630
f 680 632 631
f 679 680 631
f 681 633 632
f 680 681 632
f 682 634 633
f 681 682 633
f 683 635 634
f 682 683 634
f 684 636 635
f 683 684 635
f 685 637 636
f 684 685 636
f 686 638 637
f 685 686 637
f 687 639 638
f 686 687 638
f 688 640 639
f 687 688 639
f 689 641 640
f 688 689 640
f 690 642 641
f 689 690 641
f 691 643 642
f 690 691 642
f 692 644 643
f 691 692 643
f 693 645 644
f 692 693 644
f 694 646 645
f 693 694 645
f 695 647 646
f 694 695 646
f 696 648 647
f 695 696 647
f 697 649 648
f 696 697 648
f 698 650 649
f 697 698 649
f 699 651 650
f 698 699 650
f 700 652 651
f 699 700 651
f 701 653 652
f 700 701 652
f 702 654 653
f 701 702 653
f 703 655 654
f 702 703 654
f 704 656 655
f 703 704 655
f 705 657 656
f 704 705 656
f 706 658 657
f 705 706 657
f 707 659 658
f 706 707 658
f 708 660 659
f 707 708 659
f 709 661 660
f 708 709 660
f 710 662 661
f 709 710 661
f 711 663 662
f 710 711 662
f 712 664 663
f 711 712 663
f 713 665 664
f 712 713 664
f 714 666 665
f 713 714 665
f 715 667 666
f 714 715 666
f 716 668 667
f 715 716 667
f 717 669 668
f 716 717 668
f 718 670 669
f 717 718 669
f 719 671 670
f 718 719 670
f 720 672 671
f 719 720 671
f 721 673 672
f 720 721 672
f 674 626 673
f 721 674 673
f 723 675 674
f 722 723 674
f 724 676 675
f 723 724 675
f 725 677 676
f 724 725 676
f 726 678 677
f 725 726 677
f 727 679 678
f 726 727 678
f 728 680 679
f 727 728 679
f 729 681 680
f 728 729 680
f 730 682 681
f 729 730 681
f 731 683 682
f 730 731 682
f 732 684 683
f 731 732 683
f 733 685 684
f 732 733 684
f 734 686 685
f 733 734 685
f 735 687 686
f 734 735 686
f 736 688 687
f 735 736 687
f 737 689 688
f 736 737 688
f 738 690 689
f 737 738 689
f 739 691 690
f 738 739 690
f 740 692 691
f 739 740 691
f 741 693 692
f 740 741 692
f 742 694 693
f 741 742 693
f 743 695 694
f 742 743 694
f 744 696 695
f 743 744 695
f 745 697 696
f 744 745 696
f 746 698 697
f 745 746 697
f 747 699 698
f 746 747 698
f 748 700 699
f 747 748 699
f 749 701 700
f 748 749 700
f 750 702 701
f 749 750 701
f 751 703 702
f 750 751 702
f 752 704 703
f 751 752 703
f 753 705 704
f 752 753 704
f 754 706 705
f 753 754 705
f 755 707 706
f 754 755 706
f 756 708 707
f 755 756 707
f 757 709 708
f 756 757 708
f 758 710 709
f 757 758 709
f 759 711 710
f 758 759 710
f 760 712 711
f 759 760 711
f 761 713 712
f 760 761 712
f 762 714 713
f 761 762 713
f 763 715 714
f 762 763 714
f 764 716 715
f 763 764 715
f 765 717 716
f 764 765 716
f 766 718 717
f 765 766 717
f 767 719 718
f 766 767 718
f 768 720 719
f 767 768 719
f 769 721 720
f 768 769 720
f 722 674 721
f 769 722 721
f 771 723 722
f 770 771 722
f 772 724 723
f 771 772 723
f 773 725 724
f 772 773 724
f 774 726 725
f 773 774 725
f 775 727 726
f 774 775 726
f 776 728 727
f 775 776 727
f 777 729 728
f 776 777 728
f 778 730 729
f 777 778 729
f 779 731 730
f 778 779 730
f 780 732 731
f 779 780 731
f 781 733 732
f 780 781 732
f 782 734 733
f 781 782 733
f 783 735 734
f 782 783 734
f 784 736 735
f 783 784 735
f 785 737 736
f 784 785 736
f 786 738 737
f 785 786 737
f 787 739 738
f 786 787 738
f 788 740 739
f 787 788 739
f 789 741 740
f 788 789 740
f 790 742 741
f 789 790 741
f 791 743 742
f 790 791 742
f 792 744 743
f 791 792 743
f 793 745 744
f 792 793 744
f 794 746 745
f 793 794 745
f 795 747 746
f 794 795 746
f 796 748 747
f 795 796 747
f 797 749 748
f 796 797 748
f 798 750 749
f 797 798 749
f 799 751 750
f 798 799 750
f 800 752 751
f 799 800 751
f 801 753 752
f 800 801 752
f 802 754 753
f 801 802 753
f 803 755 754
f 802 803 754
f 804 756 755
f 803 804 755
f 805 757 756
f 804 805 756
f 806 758 757
f 805 806 757
f 807 759 758
f 806 807 758
f 808 760 759
f 807 808 759
f 809 761 760
f 808 809 760
f 810 762 761
f 809 810 761
f 811 763 762
f 810 811 762
f 812 764 763
f 811 812 763
f 813 765 764
f 812 813 764
f 814 766 765
f 813 814 765
f 815 767 766
f 814 815 766
f 816 768 767
f 815 816 767
f 817 769 768
f 816 817 768
f 770 722 769
f 817 770 769
f 819 771 770
f 818 819 770
f 820 772 771
f 819 820 771
f 821 773 772
f 820 821 772
f 822 774 773
f 821 822 773
f 823 775 774
f 822 823 774
f 824 776 775
f 823 824 775
f 825 777 776
f 824 825 776
f 826 778 777
f 825 826 777
f 827 779 778
f 826 827 778
f 828 780 779
f 827 828 779
f 829 781 780
f 828 829 780
f 830 782 781
f 829 830 781
f 831 783 782
f 830 831 782
f 832 784 783
f 831 832 783
f 833 785 784
f 832 833 784
f 834 786 785
f 833 834 785
f 835 787 786
f 834 835 786
f 836 788 787
f 835 836 787
f 837 789 788
f 836 837 788
f 838 790 789
f 837 838 789
f 839 791 790
f 838 839 790
f 840 792 791
f 839 840 791
f 841 793 792
f 840 841 792
f 842 794 793
f 841 842 793
f 843 795 794
f 842 843 794
f 844 796 795
f 843 844 795
f 845 797 796
f 844 845 796
f 846 798 797
f 845 846 797
f 847 799 798
f 846 847 798
f 848 800 799
f 847 848 799
f 849 801 800
f 848 849 800
f 850 802 801
f 849 850 801
f 851 803 802
f 850 851 802
f 852 804 803
f 851 852 803
f 853 805 804
f 852 853 804
f 854 806 805
f 853 854 805
f 855 807 806
f 854 855 806
f 856 808 807
f 855 856 807
f 857 809 808
f 856 857 808
f 858 810 809
f 857 858 809
f 859 811 810
f 858 859 810
f 860 812 811
f 859 860 811
f 861 813 812
f 860 861 812
f 862 814 813
f 861 862 813
f 863 815 814
f 862 863 814
f 864 816 815
f 863 864 815
f 865 817 816
f 864 865 816
f 818 770 817
f 865 818 817
f 867 819 818
f 866 867 818
f 868 820 819
f 867 868 819
f 869 821 820
f 868 869 820
f 870 822 821
f 869 870 821
f 871 823 822
f 870 871 822
f 872 824 823
f 871 872 823
f 873 825 824
f 872 873 824
f 874 826 825
f 873 874 825
f 875 827 826
f 874 875 826
f 876 828 827
f 875 876 827
f 877 829 828
f 876 877 828
f 878 830 829
f 877 878 829
f 879 831 830
f 878 879 830
f 880 832 831
f 879 880 831
f 881 833 832
f 880 881 832
f 882 834 833
f 881 882 833
f 883 835 834
f 882 883 834
f 884 836 835
f 883 884 835
f 885 837 836
f 884 885 836
f 886 838 837
f 885 886 837
f 887 839 838
f 886 887 838
f 888 840 839
f 887 888 839
f 889 841 840
f 888 889 840
f 890 842 841
f 889 890 841
f 891 843 842
f 890 891 842
f 892 844 843
f 891 892 843
f 893 845 844
f 892 893 844
f 894 846 845
f 893 894 845
f 895 847 846
f 894 895 846
f 896 848 847
f 895 896 847
f 897 849 848
f 896 897 848
f 898 850 849
f 897 898 849
f 899 851 850
f 898 899 850
f 900 852 851
f 899 900 851
f 901 853 852
f 900 901 852
f 902 854 853
f 901 902 853
f 903 855 854
f 902 903 854
f 904 856 855
f 903 904 855
f 905 857 856
f 904 905 856
f 906 858 857
f 905 906 857
f 907 859 858
f 906 907 858
f 908 860 859
f 907 908 859
f 909 861 860
f 908 909 860
f 910 862 861
f 909 910 861
f 911 863 862
f 910 911 862
f 912 864 863
f 911 912 863
f 913 865 864
f 912 913 864
f 866 818 865
f 913 866 865
f 915 867 866
f 914 915 866
f 916 868 867
f 915 916 867
f 917 869 868
f 916 917 868
f 918 870 869
f 917 918 869
f 919 871 870
f 918 919 870
f 920 872 871
f 919 920 871
f 921 873 872
f 920 921 872
f 922 874 873
f 921 922 873
f 923 875 874
f 922 923 874
f 924 876 875
f 923 924 875
f 925 877 876
f 924 925 876
f 926 878 877
f 925 926 877
f 927 879 878
f 926 927 878
f 928 880 879
f 927 928 879
f 929 881 880
f 928 929 880
f 930 882 881
f 929 930 881
f 931 883 882
f 930 931 882
f 932 884 883
f 931 932 883
f 933 885 884
f 932 933 884
f 934 886 885
f 933 934 885
f 935 887 886
f 934 935 886
f 936 888 887
f 935 936 887
f 937 889 888
f 936 937 888
f 938 890 889
f 937 938 889
f 939 891 890
f 938 939 890
f 940 892 891
f 939 940 891
f 941 893 892
f 940 941 892
f 942 894 893
f 941 942 893
f 943 895 894
f 942 943 894
f 944 896 895
f 943 944 895
f 945 897 896
f 944 945 896
f 946 898 897
f 945 946 897
f 947 899 898
f 946 947 898
f 948 900 899
f 947 948 899
f 949 901 900
f 948 949 900
f 950 902 901
f 949 950 901
f 951 903 902
f 950 951 902
f 952 904 903
f 951 952 903
f 953 905 904
f 952 953 904
f 954 906 905
f 953 954 905
f 955 907 906
f 954 955 906
f 956 908 907
f 955 956 907
f 957 909 908
f 956 957 908
f 958 910 909
f 957 958 909
f 959 911 910
f 958 959 910
f 960 912 911
f 959 960 911
f 961 913 912
f 960 961 912
f 914 866 913
f 961 914 913
f 963 915 914
f 962 963 914
f 964 916 915
f 963 964 915
f 965 917 916
f 964 965 916
f 966 918 917
f 965 966 917
f 967 919 918
f 966 967 918
f 968 920 919
f 967 968 919
f 969 921 920
f 968 969 920
f 970 922 921
f 969 970 921
f 971 923 922
f 970 971 922
f 972 924 923
f 971 972 923
f 973 925 924
f 972 973 924
f 974 926 925
f 973 974 925
f 975 927 926
f 974 975 926
f 976 928 927
f 975 976 927
f 977 929 928
f 976 977 928
f 978 930 929
f 977 978 929
f 979 931 930
f 978 979 930
f 980 932 931
f 979 980 931
f 981 933 932
f 980 981 932
f 982 934 933
f 981 982 933
f 983 935 934
f 982 983 934
f 984 936 935
f 983 984 935
f 985 937 936
f 984 985 936
f 986 938 937
f 985 986 937
f 987 939 938
f 986 987 938
f 988 940 939
f 987 988 939
f 989 941 940
f 988 989 940
f 990 942 941
f 989 990 941
f 991 943 942
f 990 991 942
f 992 944 943
f 991 992 943
f 993 945 944
f 992 993 944
f 994 946 945
f 993 994 945
f 995 947 946
f 994 995 946
f 996 948 947
f 995 996 947
f 997 949 948
f 996 997 948
f 998 950 949
f 997 998 949
f 999 951 950
f 998 999 950
f 1000 952 951
f 999 1000 951
f 1001 953 952
f 1000 1001 952
f 1002 954 953
f 1001 1002 953
f 1003 955 954
f 1002 1003 954
f 1004 956 955
f 1003 1004 955
f 1005 957 956
f 1004 1005 956
f 1006 958 957
f 1005 1006 957
f 1007 959 958
f 1006 1007 958
f 1008 960 959
f 1007 1008 959
f 1009 961 960
f 1008 1009 960
f 962 914 961
f 1009 962 961
f 1011 963 962
f 1010 1011 962
f 1012 964 963
f 1011 1012 963
f 1013 965 964
f 1012 1013 964
f 1014 966 965
f 1013 1014 965
f 1015 967 966
f 1014 1015 966
f 1016 968 967
f 1015 1016 967
f 1017 969 968
f 1016 1017 968
f 1018 970 969
f 1017 1018 969
f 1019 971 970
f 1018 1019 970
f 1020 972 971
f 1019 1020 971
f 1021 973 972
f 1020 1021 972
f 1022 974 973
f 1021 1022 973
f 1023 975 974
f 1022 1023 974
f 1024 976 975
f 1023 1024 975
f 1025 977 976
f 1024 1025 976
f 1026 978 977
f 1025 1026 977
f 1027 979 978
f 1026 1027 978
f 1028 980 979
f 1027 1028 979
f 1029 981 980
f 1028 1029 980
f 1030 982 981
f 1029 1030 981
f 1031 983 982
f 1030 1031 982
f 1032 984 983
f 1031 1032 983
f 1033 985 984
f 1032 1033 984
f 1034 986 985
f 1033 1034 985
f 1035 987 986
f 1034 1035 986
f 1036 988 987
f 1035 1036 987
f 1037 989 988
f 1036 1037 988
f 1038 990 989
f 1037 1038 989
f 1039 991 990
f 1038 1039 990
f 1040 992 991
f 1039 1040 991
f 1041 993 992
f 1040 1041 992
f 1042 994 993
f 1041 1042 993
f 1043 995 994
f 1042 1043 994
f 1044 996 995
f 1043 1044 995
f 1045 997 996
f 1044 1045 996
f 1046 998 997
f 1045 1046 997
f 1047 999 998
f 1046 1047 998
f 1048 1000 999
f 1047 1048 999
f 1049 1001 1000
f 1048 1049 1000
f 1050 1002 1001
f 1049 1050 1001
f 1051 1003 1002
f 1050 1051 1002
f 1052 1004 1003
f 1051 1052 1003
f 1053 1005 1004
f 1052 1053 1004
f 1054 1006 1005
f 1053 1054 1005
f 1055 1007 1006
f 1054 1055 1006
f 1056 1008 1007
f 1055 1056 1007
f 1057 1009 1008
f 1056 1057 1008
f 1010 962 1009
f 1057 1010 1009
f 1059 1011 1010
f 1058 1059 1010
f 1060 1012 1011
f 1059 1060 1011
f 1061 1013 1012
f 1060 1061 1012
f 1062 1014 1013
f 1061 1062 1013
f 1063 1015 1014
f 1062 1063 1014
f 1064 1016 1015
f 1063 1064 1015
f 1065 1017 1016
f 1064 1065 1016
f 1066 1018 1017
f 1065 1066 1017
f 1067 1019 1018
f 1066 1067 1018
f 1068 1020 1019
f 1067 1068 1019
f 1069 1021 1020
f 1068 1069 1020
f 1070 1022 1021
f 1069 1070 1021
f 1071 1023 1022
f 1070 1071 1022
f 1072 1024 1023
f 1071 1072 1023
f 1073 1025 1024
f 1072 1073 1024
f 1074 1026 1025
f 1073 1074 1025
f 1075 1027 1026
f 1074 1075 1026
f 1076 1028 1027
f 1075 1076 1027
f 1077 1029 1028
f 1076 1077 1028
f 1078 1030 1029
f 1077 1078 1029
f 1079 1031 1030
f 1078 1079 1030
f 1080 1032 1031
f 1079 1080 1031
f 1081 1033 1032
f 1080 1081 1032
f 1082 1034 1033
f 1081 1082 1033
f 1083 1035 1034
f 1082 1083 1034
f 1084 1036 1035
f 1083 1084 1035
f 1085 1037 1036
f 1084 1085 1036
f 1086 1038 1037
f 1085 1086 1037
f 1087 1039 1038
f 1086 1087 1038
f 1088 1040 1039
f 1087 1088 1039
f 1089 1041 1040
f 1088 1089 1040
f 1090 1042 1041
f 1089 1090 1041
f 1091 1043 1042
f 1090 1091 1042
f 1092 1044 1043
f 1091 1092 1043
f 1093 1045 1044
f 1092 1093 1044
f 1094 1046 1045
f 1093 1094 1045
f 1095 1047 1046
f 1094 1095 1046
f 1096 1048 1047
f 1095 1096 1047
f 1097 1049 1048
f 1096 1097 1048
f 1098 1050 1049
f 1097 1098 1049
f 1099 1051 1050
f 1098 1099 1050
f 1100 1052 1051
f 1099 1100 1051
f 1101 1053 1052
f 1100 1101 1052
f 1102 1054 1053
f 1101 1102 1053
f 1103 1055 1054
f 1102 1103 1054
f 1104 1056 1055
f 1103 1104 1055
f 1105 1057 1056
f 1104 1105 1056
f 1058 1010 1057
f 1105 1058 1057
f 1107 1059 1058
f 1106 1107 1058
f 1108 1060 1059
f 1107 1108 1059
f 1109 1061 1060
f 1108 1109 1060
f 1110 1062 1061
f 1109 1110 1061
f 1111 1063 1062
f 1110 1111 1062
f 1112 1064 1063
f 1111 1112 1063
f 1113 1065 1064
f 1112 1113 1064
f 1114 1066 1065
f 1113 1114 1065
f 1115 1067 1066
f 1114 1115 1066
f 1116 1068 1067
f 1115 1116 1067
f 1117 1069 1068
f 1116 1117 1068
f 1118 1070 1069
f 1117 1118 1069
f 1119 1071 1070
f 1118 1119 1070
f 1120 1072 1071
f 1119 1120 1071
f 1121 1073 1072
f 1120 1121 1072
f 1122 1074 1073
f 1121 1122 1073
f 1123 1075 1074
f 1122 1123 1074
f 1124 1076 1075
f 1123 1124 1075
f 1125 1077 1076
f 1124 1125 1076
f 1126 1078 1077
f 1125 1126 1077
f 1127 1079 1078
f 1126 1127 1078
f 1128 1080 1079
f 1127 1128 1079
f 1129 1081 1080
f 1128 1129 1080
f 1130 1082 1081
f 1129 1130 1081
f 1131 1083 1082
f 1130 1131 1082
f 1132 1084 1083
f 1131 1132 1083
f 1133 1085 1084
f 1132 1133 1084
f 1134 1086 1085
f 1133 1134 1085
f 1135 1087 1086
f 1134 1135 1086
f 1136 1088 1087
f 1135 1136 1087
f 1137 1089 1088
f 1136 1137 1088
f 1138 1090 1089
f 1137 1138 1089
f 1139 1091 1090
f 1138 1139 1090
f 1140 1092 1091
f 1139 1140 1091
f 1141 1093 1092
f 1140 1141 1092
f 1142 1094 1093
f 1141 1142 1093
f 1143 1095 1094
f 1142 1143 1094
f 1144 1096 1095
f 1143 1144 1095
f 1145 1097 1096
f 1144 1145 1096
f 1146 1098 1097
f 1145 1146 1097
f 1147 1099 1098
f 1146 1147 1098
f 1148 1100 1099
f 1147 1148 1099
f 1149 1101 1100
f 1148 1149 1100
f 1150 1102 1101
f 1149 1150 1101
f 1151 1103 1102
f 1150 1151 1102
f 1152 1104 1103
f 1151 1152 1103
f 1153 1105 1104
f 1152 1153 1104
f 1106 1058 1105
f 1153 1106 1105
f 1155 1107 1106
f 1154 1155 1106
f 1156 1108 1107
f 1155 1156 1107
f 1157 1109 1108
f 1156 1157 1108
f 1158 1110 1109
f 1157 1158 1109
f 1159 1111 1110
f 1158 1159 1110
f 1160 1112 1111
f 1159 1160 1111
f 1161 1113 1112
f 1160 1161 1112
f 1162 1114 1113
f 1161 1162 1113
f 1163 1115 1114
f 1162 1163 1114
f 1164 1116 1115
f 1163 1164 1115
f 1165 1117 1116
f 1164 1165 1116
f 1166 1118 1117
f 1165 1166 1117
f 1167 1119 1118
f 1166 1167 1118
f 1168 1120 1119
f 1167 1168 1119
f 1169 1121 1120
f 1168 1169 1120
f 1170 1122 1121
f 1169 1170 1121
f 1171 1123 1122
f 1170 1171 1122
f 1172 1124 1123
f 1171 1172 1123
f 1173 1125 1124
f 1172 1173 1124
f 1174 1126 1125
f 1173 1174 1125
f 1175 1127 1126
f 1174 1175 1126
f 1176 1128 1127
f 1175 1176 1127
f 1177 1129 1128
f 1176 1177 1128
f 1178 1130 1129
f 1177 1178 1129
f 1179 1131 1130
f 1178 1179 1130
f 1180 1132 1131
f 1179 1180 1131
f 1181 1133 1132
f 1180 1181 1132
f 1182 1134 1133
f 1181 1182 1133
f 1183 1135 1134
f 1182 1183 1134
f 1184 1136 1135
f 1183 1184 1135
f 1185 1137 1136
f 1184 1185 1136
f 1186 1138 1137
f 1185 1186 1137
f 1187 1139 1138
f 1186 1187 1138
f 1188 1140 1139
f 1187 1188 1139
f 1189 1141 1140
f 1188 1189 1140
f 1190 1142 1141
f 1189 1190 1141
f 1191 1143 1142
f 1190 1191 1142
f 1192 1144 1143
f 1191 1192 1143
f 1193 1145 1144
f 1192 1193 1144
f 1194 1146 1145
f 1193 1194 1145
f 1195 1147 1146
f 1194 1195 1146
f 1196 1148 1147
f 1195 1196 1147
f 1197 1149 1148
f 1196 1197 1148
f 1198 1150 1149
f 1197 1198 1149
f 1199 1151 1150
f 1198 1199 1150
f 1200 1152 1151
f 1199 1200 1151
f 1201 1153 1152
f 1200 1201 1152
f 1154 1106 1153
f 1201 1154 1153
f 1203 1155 1154
f 1202 1203 1154
f 1204 1156 1155
f 1203 1204 1155
f 1205 1157 1156
f 1204 1205 1156
f 1206 1158 1157
f 1205 1206 1157
f 1207 1159 1158
f 1206 1207 1158
f 1208 1160 1159
f 1207 1208 1159
f 1209 1161 1160
f 1208 1209 1160
f 1210 1162 1161
f 1209 1210 1161
f 1211 1163 1162
f 1210 1211 1162
f 1212 1164 1163
f 1211 1212 1163
f 1213 1165 1164
f 1212 1213 1164
f 1214 1166 1165
f 1213 1214 1165
f 1215 1167 1166
f 1214 1215 1166
f 1216 1168 1167
f 1215 1216 1167
f 1217 1169 1168
f 1216 1217 1168
f 1218 1170 1169
f 1217 1218 1169
f 1219 1171 1170
f 1218 1219 1170
f 1220 1172 1171
f 1219 1220 1171
f 1221 1173 1172
f 1220 1221 1172
f 1222 1174 1173
f 1221 1222 1173
f 1223 1175 1174
f 1222 1223 1174
f 1224 1176 1175
f 1223 1224 1175
f 1225 1177 1176
f 1224 1225 1176
f 1226 1178 1177
f 1225 1226 1177
f 1227 1179 1178
f 1226 1227 1178
f 1228 1180 1179
f 1227 1228 1179
f 1229 1181 1180
f 1228 1229 1180
f 1230 1182 1181
f 1229 1230 1181
f 1231 1183 1182
f 1230 1231 1182
f 1232 1184 1183
f 1231 1232 1183
f 1233 1185 1184
f 1232 1233 1184
f 1234 1186 1185
f 1233 1234 1185
f 1235 1187 1186
f 1234 1235 1186
f 1236 1188 1187
f 1235 1236 1187
f 1237 1189 1188
f 1236 1237 1188
f 1238 1190 1189
f 1237 1238 1189
f 1239 1191 1190
f 1238 1239 1190
f 1240 1192 1191
f 1239 1240 1191
f 1241 1193 1192
f 1240 1241 1192
f 1242 1194 1193
f 1241 1242 1193
f 1243 1195 1194
f 1242 1243 1194
f 1244 1196 1195
f 1243 1244 1195
f 1245 1197 1196
f 1244 1245 1196
f 1246 1198 1197
f 1245 1246 1197
f 1247 1199 1198
f 1246 1247 1198
f 1248 1200 1199
f 1247 1248 1199
f 1249 1201 1200
f 1248 1249 1200
f 1202 1154 1201
f 1249 1202 1201
f 1251 1203 1202
f 1250 1251 1202
f 1252 1204 1203
f 1251 1252 1203
f 1253 1205 1204
f 1252 1253 1204
f 1254 1206 1205
f 1253 1254 1205
f 1255 1207 1206
f 1254 1255 1206
f 1256 1208 1207
f 1255 1256 1207
f 1257 1209 1208
f 1256 1257 1208
f 1258 1210 1209
f 1257 1258 1209
f 1259 1211 1210
f 1258 1259 1210
f 1260 1212 1211
f 1259 1260 1211
f 1261 1213 1212
f 1260 1261 1212
f 1262 1214 1213
f 1261 1262 1213
f 1263 1215 1214
f 1262 1263 1214
f 1264 1216 1215
f 1263 1264 1215
f 1265 1217 1216
f 1264 1265 1216
f 1266 1218 1217
f 1265 1266 1217
f 1267 1219 1218
f 1266 1267 1218
f 1268 1220 1219
f 1267 1268 1219
f 1269 1221 1220
f 1268 1269 1220
f 1270 1222 1221
f 1269 1270 1221
f 1271 1223 1222
f 1270 1271 1222
f 1272 1224 1223
f 1271 1272 1223
f 1273 1225 1224
f 1272 1273 1224
f 1274 1226 1225
f 1273 1274 1225
f 1275 1227 1226
f 1274 1275 1226
f 1276 1228 1227
f 1275 1276 1227
f 1277 1229 1228
f 1276 1277 1228
f 1278 1230 1229
f 1277 1278 1229
f 1279 1231 1230
f 1278 1279 1230
f 1280 1232 1231
f 1279 1280 1231
f 1281 1233 1232
f 1280 1281 1232
f 1282 1234 1233
f 1281 1282 1233
f 1283 1235 1234
f 1282 1283 1234
f 1284 1236 1235
f 1283 1284 1235
f 1285 1237 1236
f 1284 1285 1236
f 1286 1238 1237
f 1285 1286 1237
f 1287 1239 1238
f 1286 1287 1238
f 1288 1240 1239
f 1287 1288 1239
f 1289 1241 1240
f 1288 1289 1240
f 1290 1242 1241
f 1289 1290 1241
f 1291 1243 1242
f 1290 1291 1242
f 1292 1244 1243
f 1291 1292 1243
f 1293 1245 1244
f 1292 1293 1244
f 1294 1246 1245
f 1293 1294 1245
f 1295 1247 1246
f 1294 1295 1246
f 1296 1248 1247
f 1295 1296 1247
f 1297 1249 1248
f 1296 1297 1248
f 1250 1202 1249
f 1297 1250 1249
f 1299 1251 1250
f 1298 1299 1250
f 1300 1252 1251
f 1299 1300 1251
f 1301 1253 1252
f 1300 1301 1252
f 1302 1254 1253
f 1301 1302 1253
f 1303 1255 1254
f 1302 1303 1254
f 1304 1256 1255
f 1303 1304 1255
f 1305 1257 1256
f 1304 1305 1256
f 1306 1258 1257
f 1305 1306 1257
f 1307 1259 1258
f 1306 1307 1258
f 1308 1260 1259
f 1307 1308 1259
f 1309 1261 1260
f 1308 1309 1260
f 1310 1262 1261
f 1309 1310 1261
f 1311 1263 1262
f 1310 1311 1262
f 1312 1264 1263
f 1311 1312 1263
f 1313 1265 1264
f 1312 1313 1264
f 1314 1266 1265
f 1313 1314 1265
f 1315 1267 1266
f 1314 1315 1266
f 1316 1268 1267
f 1315 1316 1267
f 1317 1269 1268
f 1316 1317 1268
f 1318 1270 1269
f 1317 1318 1269
f 1319 1271 1270
f 1318 1319 1270
f 1320 1272 1271
f 1319 1320 1271
f 1321 1273 1272
f 1320 1321 1272
f 1322 1274 1273
f 1321 1322 1273
f 1323 1275 1274
f 1322 1323 1274
f 1324 1276 1275
f 1323 1324 1275
f 1325 1277 1276
f 1324 1325 1276
f 1326 1278 1277
f 1325 1326 1277
f 1327 1279 1278
f 1326 1327 1278
f 1328 1280 1279
f 1327 1328 1279
f 1329 1281 1280
f 1328 1329 1280
f 1330 1282 1281
f 1329 1330 1281
f 1331 1283 1282
f 1330 1331 1282
f 1332 1284 1283
f 1331 1332 1283
f 1333 1285 1284
f 1332 1333 1284
f 1334 1286 1285
f 1333 1334 1285
f 1335 1287 1286
f 1334 1335 1286
f 1336 1288 1287
f 1335 1336 1287
f 1337 1289 1288
f 1336 1337 1288
f 1338 1290 1289
f 1337 1338 1289
f 1339 1291 1290
f 1338 1339 1290
f 1340 1292 1291
f 1339 1340 1291
f 1341 1293 1292
f 1340 1341 1292
f 1342 1294 1293
f 1341 1342 1293
f 1343 1295 1294
f 1342 1343 1294
f 1344 1296 1295
f 1343 1344 1295
f 1345 1297 1296
f 1344 1345 1296
f 1298 1250 1297
f 1345 1298 1297
f 1346 1299 1298
f 1346 1300 1299
f 1346 1301 1300
f 1346 1302 1301
f 1346 1303 1302
f 1346 1304 1303
f 1346 1305 1304
f 1346 1306 1305
f 1346 1307 1306
f 1346 1308 1307
f 1346 1309 1308
f 1346 1310 1309
f 1346 1311 1310
f 1346 1312 1311
f 1346 1313 1312
f 1346 1314 1313
f 1346 1315 1314
f 1346 1316 1315
f 1346 1317 1316
f 1346 1318 1317
f 1346 1319 1318
f 1346 1320 1319
f 1346 1321 1320
f 1346 1322 1321
f 1346 1323 1322
f 1346 1324 1323
f 1346 1325 1324
f 1346 1326 1325
f 1346 1327 1326
f 1346 1328 1327
f 1346 1329 1328
f 1346 1330 1329
f 1346 1331 1330
f 1346 1332 1331
f 1346 1333 1332
f 1346 1334 1333
f 1346 1335 1334
f 1346 1336 1335
f 1346 1337 1336
f 1346 1338 1337
f 1346 1339 1338
f 1346 1340 1339
f 1346 1341 1340
f 1346 1342 1341
f 1346 1343 1342
f 1346 1344 1343
f 1346 1345 1344
f 1346 1298 1345
